<svg xmlns="http://www.w3.org/2000/svg" xmlns:xlink="http://www.w3.org/1999/xlink" version="1.1" width="332" height="272.6194" viewBox="0,0,332,272.6194"><g><g data-paper-data="{&quot;isPaintingLayer&quot;:true}" fill-rule="nonzero" stroke-linecap="butt" stroke-linejoin="miter" stroke-miterlimit="10" stroke-dasharray="" stroke-dashoffset="0" style="mix-blend-mode: normal"><path d="M 1 269 L 1 1 L 331 1 L 331 269 Z " fill="#000000" stroke="#000000" stroke-width="2"/><text transform="matrix(1.15005,0,0,1.15005,35,68.5)" font-size="40" xml:space="preserve" fill="#5aff00" fill-rule="nonzero" stroke="none" stroke-width="1" stroke-linecap="butt" stroke-linejoin="miter" stroke-miterlimit="10" stroke-dasharray="" stroke-dashoffset="0" font-family="Pixel" font-weight="normal" text-anchor="start" style="mix-blend-mode: normal"><tspan x="0" dy="0">Game Over</tspan></text><path d="M 96.4645 262.4645 C 96.5665 262.3624 96.6686 262.2662 96.7706 262.1757 C 96.0045 261.333 95.2398 260.4901 94.6755 259.5096 C 93.8212 258.0255 93.029 256.4983 92.3806 254.9134 C 92.1393 254.3237 92.4355 253.5236 92.0265 253.035 C 91.4942 252.3991 90.488 252.3714 89.8301 251.8667 C 88.9454 251.1881 84.7585 246.6641 84.3713 246.2533 C 81.5806 245.5245 78.3836 244.7599 75.8032 243.4916 C 72.647 241.9401 71.0337 240.4834 67.3891 239.9625 C 64.9508 239.6141 62.463 240.0089 60 240 C 55.1293 239.9824 50.1623 240.2327 45.9236 243.0562 C 44.5763 243.9536 43.6802 245.3909 42.5355 246.5355 C 38.2009 250.8702 34.574 254.6125 31.1603 259.7735 C 31.1603 259.7735 28.3868 263.9337 24.2265 261.1602 C 20.0663 258.3867 22.8398 254.2265 22.8398 254.2265 C 26.6606 248.5342 30.6692 244.2597 35.4645 239.4645 C 36.0253 238.9036 39.7311 235.1742 40.0765 234.9438 C 46.1818 230.8716 52.8771 230.023 60 230 C 62.8703 229.9907 65.7694 229.6316 68.6109 230.0375 C 73.2474 230.6996 76.2248 232.4811 80.1968 234.5084 C 82.9712 235.9245 86.719 236.6755 89.6287 237.7467 C 91.8254 239.8588 93.8223 242.1904 96.17 244.1333 C 97.3877 245.1411 98.9985 245.7209 99.9735 246.965 C 101.6674 249.1263 101.9731 252.1 103.3246 254.4903 C 104.3525 256.3084 106.1941 257.5712 107.2533 259.3713 C 108.5342 261.5484 110.5543 269.3314 109.0562 270.9235 C 106.9711 273.1396 103.0765 272.0541 100.0866 272.6194 L 96.4645 269.5355 C 96.4645 269.5355 92.9289 266 96.4645 262.4645 Z " fill="#5aff00" stroke="none" stroke-width="0.5"/><path d="M 41 222 C 36 222 36 217 36 217 L 36 216 C 36 200.5164 35 185.5189 35 170 C 35 170 35 165 40 165 C 45 165 45 170 45 170 C 45 175.3333 45 180.6667 45 186 C 45 188.0665 44.5695 190.1653 44.9354 192.1991 C 45.1221 193.2365 45.7724 194.1577 45.9354 195.1991 C 46.9698 201.807 46 209.2899 46 216 L 46 217 C 46 217 46 222 41 222 Z " fill="#5aff00" stroke="none" stroke-width="0.5"/><path d="M 85 223 C 80 223 80 218 80 218 L 80 217 C 80 210.964 79.1319 204.1576 80.0646 198.1991 C 80.5369 195.1817 81.609 192.2181 82.0646 189.1991 C 82.8818 183.7831 82 177.4943 82 172 C 82 172 82 167 87 167 C 92 167 92 172 92 172 C 92 178.0865 92.7578 184.7747 91.9354 190.8009 C 91.5237 193.8179 90.476 196.7968 89.9354 199.8009 C 88.9832 205.0935 90 211.5977 90 217 L 90 218 C 90 218 90 223 85 223 Z " fill="#5aff00" stroke="none" stroke-width="0.5"/><path d="M 115.3283 136.4577 C 116.0663 135.6378 117.2143 135 119 135 C 124 135 124 140 124 140 C 124 142.4976 124.2814 145.0139 123.9757 147.4927 C 123.5947 150.5819 122.2893 153.5155 121.9625 156.6109 C 121.7232 158.8784 122.2911 161.2256 121.7855 163.4489 C 121.4834 164.777 120.124 165.6484 119.6194 166.9134 C 117.9304 171.1475 119.3651 176.5365 117.766 180.9315 C 117.9895 180.9226 118.1971 180.8747 118.3713 180.7467 C 118.9558 180.3177 119.2668 179.5898 119.8301 179.1333 C 122.9175 176.6312 125.6178 174.3111 128.4645 171.4645 C 130.5173 169.4415 134.2587 167.8008 135.7467 165.3713 C 136.2973 164.4725 136.1522 163.2418 136.7467 162.3713 C 138.0762 160.425 140.4563 159.3437 141.7467 157.3713 C 142.6598 155.9758 142.6095 153.737 144.0764 152.9438 C 149.7123 149.8963 154.2926 153.3965 159.6109 154.0375 C 166.525 154.8708 174.4645 155.8852 181.4544 155.0298 C 184.9523 154.6018 190.2136 153.3207 193.6723 151.5749 C 195.8181 150.4917 197.5261 148.6574 199.6723 147.5749 C 205.6635 144.5529 212.1208 141.9404 218.2941 139.3 C 228.3253 136.2898 238.1189 134.4422 248.4366 132.7001 C 253.3 131.879 258.8972 131.7961 263.0764 128.9438 C 264.5491 127.9387 265.4427 126.2532 266.8301 125.1333 C 270.6422 122.0561 274.8999 119.021 278.3677 115.5639 C 279.136 114.798 279.4279 113.6542 280.1333 112.83 C 282.5744 109.9783 284.9062 107.0188 287.5639 104.3677 C 288.4978 103.4362 289.787 102.9408 290.8301 102.1333 C 292.5901 100.7706 292.5614 99.7949 294.1333 97.83 C 296.3357 95.077 297.3859 94.1635 298.5711 90.6795 C 300.2391 88.4035 302.2613 86.3344 303.5084 83.8032 C 304.0459 82.7123 304.1181 81.4124 304.7467 80.3713 C 305.327 79.4104 306.4068 78.8366 307.059 77.9229 C 309.1039 75.0578 312.0579 70.6708 313.3106 67.2653 C 313.8362 65.8363 313.8077 64.2147 314.4853 62.8511 C 315.8285 60.1481 318.3725 57.9862 319.0902 55.0545 C 319.6494 52.7702 318.994 50.3517 319 48 C 319.0081 44.8143 318.3882 41.6576 318.0243 38.4927 C 317.9462 37.813 318.4422 37.0941 318.2145 36.4489 C 317.9011 35.5608 316.9237 35.0421 316.5084 34.1968 C 315.097 31.3235 315.3671 27.8742 314.3503 24.8387 C 313.9262 23.5723 312.5981 22.7282 312.2145 21.4489 C 311.9518 20.5728 312 15.4055 312 14 C 312 13.3177 311.8269 12.602 311.8351 11.9213 C 310.7659 12.1358 309.4085 12.0035 309 12 C 305.5877 11.9708 303.0797 13.4444 299.6109 13.9625 C 298.6845 14.1009 297.7254 13.7845 296.8009 13.9354 C 292.4407 14.6474 286.8973 16.0134 282.7347 17.6894 C 279.5438 18.9742 276.6204 20.9978 273.2833 21.8325 C 267.0552 23.3903 261.6748 22.4517 255.4124 22.983 C 253.3921 23.1543 251.435 23.8402 249.4124 23.983 C 249.1231 24.0034 237.9855 24 236 24 C 227.404 24 218.8221 23.233 210.3891 21.9625 C 207.5122 21.5291 204.4077 22.33 201.5073 21.9757 C 198.133 21.5635 194.8953 20.2533 191.5073 19.9757 C 181.6597 19.1688 171.6183 20.6051 161.7509 19.9938 C 151.7545 19.3745 142.094 18.095 132.0531 18.0233 C 125.4146 17.9729 118.2327 17.1596 111.6109 17.9626 C 109.2648 18.2471 107.1386 19.588 104.8009 19.9355 C 103.3804 20.1466 101.9146 19.774 100.4927 19.9757 C 97.1963 20.4432 94.0083 21.5731 90.6987 21.9357 C 87.8202 22.251 84.9075 21.99 82.0118 22 C 76.8043 22.0179 71.5666 22.5215 66.3891 21.9626 C 65.0226 21.8151 63.7545 21.1192 62.3891 20.9626 C 58.7873 20.5493 53.4536 20.4633 49.8009 20.9355 C 47.7854 21.196 46.1624 23.203 44.4489 23.7855 C 43.5021 24.1073 42.4 23.4765 41.4489 23.7855 C 40.5532 24.0764 40.0411 25.0743 39.1968 25.4916 C 37.9606 26.1025 36.5878 26.3855 35.2833 26.8325 C 31.9562 27.4901 28.7559 28.6853 25.5383 29.7575 C 24.1881 30.2074 22.7777 30.4514 21.3979 30.8006 C 20.8202 30.9468 20.2603 31.2036 19.667 31.2505 C 20.2677 35.9492 18.2536 40.5662 18.9625 45.3891 C 19.5172 49.1624 20.8869 51.5432 22.4916 54.8033 C 23.8168 57.4955 23.9009 60.6926 25.2533 63.3714 C 25.6781 64.213 26.8057 64.5415 27.2533 65.3714 C 28.4968 67.6773 28.2712 70.5136 28.9098 73.0545 C 29.3473 74.7954 30.4857 76.3102 30.9098 78.0545 C 31.0714 78.7194 30.3767 79.4468 30.6194 80.0866 C 30.8257 80.6304 31.7273 80.5968 32.0562 81.0765 C 32.9917 82.4408 33.5684 84.0191 34.3246 85.4904 C 36.4699 88.7452 39.3749 90.8548 41.8667 93.8301 C 43.6151 95.9177 43.3197 96.7079 45.1699 98.1333 C 48.9496 101.0451 53.538 103.0335 57.1699 106.1333 C 59.5366 108.1532 60.9487 111.3564 63.7069 112.7962 C 66.1286 114.0603 68.9613 114.3881 71.4021 115.6148 C 74.24 117.0412 76.7261 119.1046 79.1699 121.1333 C 81.2568 122.8657 81.8601 124.4044 84.1967 125.5084 C 89.1065 127.8283 94.3326 129.524 99.1488 132.1338 C 104.4563 131.9953 110.1381 134.5318 115.3283 136.4578 Z M 113.7729 147.9587 C 113.029 147.7539 112.2467 147.3178 111.4645 146.5355 C 111.0678 146.1389 110.7602 145.7423 110.5266 145.3507 C 106.0636 143.6947 101.4873 141.9621 96.8512 141.8662 C 91.2092 139.2057 85.2784 137.3377 79.8032 134.4916 C 74.8335 131.9082 71.6204 126.883 66.5979 124.3852 C 63.9436 123.0651 60.8746 122.6612 58.2931 121.2039 C 57.4483 120.727 51.5916 114.523 50.83 113.8667 C 47.2224 110.758 42.522 108.8904 38.83 105.8667 C 36.926 104.3073 35.7036 102.065 34.1333 100.1699 C 31.3135 96.7669 28.1802 94.2399 25.6754 90.5096 C 25.0982 89.3143 24.6681 88.036 23.9438 86.9235 C 23.2247 85.8192 21.8794 85.1332 21.3806 83.9134 C 20.8786 82.6859 21.4184 81.2305 21.0902 79.9455 C 20.646 78.2063 19.5235 76.6875 19.0902 74.9455 C 18.7418 73.5447 19.5983 71.7942 18.7467 70.6287 C 18.1905 69.8674 17.1659 69.4732 16.7467 68.6287 C 15.269 65.6511 15.0163 62.1592 13.5084 59.1968 C 12.9345 58.0693 11.918 57.1889 11.4274 56.0228 C 8.1572 48.2501 8.979 40.539 10.0243 32.5073 C 10.258 30.7116 9.6439 28.7407 10.3806 27.0866 C 12.774 21.7124 17.8155 21.7918 22.4616 20.2425 C 25.8471 19.1136 29.2188 17.8749 32.7166 17.1675 C 34.7951 16.511 36.4873 14.9161 38.5511 14.2145 C 39.4979 13.8927 40.6 14.5235 41.5511 14.2145 C 42.4468 13.9236 42.9521 12.9117 43.8032 12.5084 C 45.197 11.848 46.6822 11.3437 48.1991 11.0646 C 54.4163 9.9204 61.5591 11.3431 67.6109 12.0375 C 72.3721 12.5837 77.1957 12.0036 81.9881 12 C 84.5553 11.9981 87.1387 12.2744 89.6897 11.9867 C 93.0059 11.6127 96.2033 10.4944 99.5073 10.0243 C 100.7257 9.851 101.9795 10.2296 103.1991 10.0646 C 105.6667 9.7306 107.919 8.3527 110.3891 8.0375 C 117.4157 7.1407 125.0971 7.9704 132.1289 8.0236 C 142.3091 8.105 152.1174 9.3696 162.2491 10.0062 C 172.2803 10.6365 182.4762 9.1778 192.4927 10.0243 C 195.2996 10.2616 199.6048 11.6529 202.4927 12.0243 C 205.4773 12.4082 208.6176 11.6294 211.6109 12.0375 C 219.6789 13.1372 227.7811 14 236 14 C 240.1959 14 244.4026 14.3198 248.5876 14.017 C 250.6099 13.8707 252.5668 13.1826 254.5876 13.017 C 260.1676 12.5598 265.2476 13.5339 270.7166 12.1675 C 274.4201 11.2423 274.6872 10.1309 279.2653 8.3106 C 285.253 5.9297 292.133 4.8828 298.3891 4.0375 C 300.7311 3.721 302.8662 2.4428 305.1991 2.0646 C 309.5224 1.3637 317.8407 1.9733 320.8667 4.8301 C 322.1806 6.0705 322 11.7367 322 14 C 322 15.5187 321.2258 17.1393 321.7854 18.5511 C 322.1795 19.545 323.3129 20.1465 323.6496 21.1613 C 324.5772 23.9568 324.1544 27.1789 325.4916 29.8032 C 326.1565 31.1083 327.336 32.1571 327.7854 33.5511 C 328.1906 34.8076 327.8017 36.1986 327.9757 37.5073 C 328.1996 39.1922 328.8105 40.8157 328.9757 42.5073 C 329.6525 49.4402 329.6657 57.1956 326.3588 63.4496 C 325.6318 64.8246 324.2144 65.7597 323.5147 67.1489 C 322.9629 68.2443 323.1267 69.5888 322.6894 70.7347 C 322.0562 72.3942 321.1951 73.9615 320.3246 75.5096 C 318.6714 78.4495 316.9025 81.3332 314.941 84.0771 C 314.4966 84.6987 313.6438 84.9718 313.2533 85.6286 C 312.7969 86.3961 312.8952 87.4003 312.4916 88.1967 C 311.3722 90.4058 308.9321 93.3754 307.4289 95.3205 C 306.2251 99.0145 304.2216 101.2263 301.8667 104.1699 C 300.3293 106.0917 299.0715 108.3042 297.1699 109.8667 C 296.3318 110.5554 295.202 110.864 294.4361 111.6323 C 291.2321 114.8461 288.8199 119.2404 285.6323 122.4361 C 281.9004 126.1773 277.3096 129.5896 273.1699 132.8667 C 269.6345 135.6656 268.5122 138.1431 263.6729 139.7118 C 256.444 142.0552 247.7299 142.9007 240.2834 144.2192 C 234.0109 145.3298 227.8075 146.8701 221.7059 148.7 C 215.9282 151.1817 209.954 153.6416 204.3277 156.4251 C 199.9983 158.567 197.43 161.3505 192.4756 162.7773 C 186.8328 164.4023 180.8721 164.9946 175 165 C 169.4945 165.0051 163.8279 164.6623 158.3891 163.9625 C 156.8239 163.7612 155.3183 163.2335 153.7873 162.8507 C 152.6515 162.5668 151.4509 162.4557 150.3891 161.9625 C 150.0811 161.8195 149.9914 160.7234 149.9236 161.0562 C 149.8166 161.581 150.5052 162.1561 150.2533 162.6287 C 149.1444 164.7086 146.5301 165.6474 145.2533 167.6287 C 144.6822 168.5147 144.8591 169.766 144.2533 170.6287 C 141.7789 174.1519 138.3988 175.612 135.5355 178.5355 C 130.4308 183.6403 122.5941 193.2643 114.1991 190.9354 C 111.9691 190.3168 109.3325 189.7747 107.9438 187.9235 C 104.834 183.7783 108.4989 176.8127 109.0243 172.5073 C 109.4086 169.358 109.316 166.0753 110.3806 163.0866 C 110.7306 162.104 111.995 161.5708 112.2145 160.5511 C 112.5768 158.8679 111.8763 157.1032 112.0375 155.3891 C 112.2755 152.8579 113.241 150.4451 113.7729 147.9587 Z " fill="#5aff00" stroke="none" stroke-width="0.5"/></g></g></svg>