<svg xmlns="http://www.w3.org/2000/svg" xmlns:xlink="http://www.w3.org/1999/xlink" version="1.1" width="120" height="52.287" viewBox="0,0,120,52.287"><defs><linearGradient x1="181.0181" y1="176.9307" x2="301.0176" y2="176.9307" gradientUnits="userSpaceOnUse" id="color-1"><stop offset="0" stop-color="#27aae1"/><stop offset="1" stop-color="#115489"/></linearGradient><linearGradient x1="185.5205" y1="176.9307" x2="296.5137" y2="176.9307" gradientUnits="userSpaceOnUse" id="color-2"><stop offset="0" stop-color="#2f7eba"/><stop offset="0.506" stop-color="#3f9dd6"/><stop offset="1" stop-color="#3e97d1"/></linearGradient><linearGradient x1="0.0001" y1="26.1437" x2="119.9996" y2="26.1437" gradientUnits="userSpaceOnUse" id="color-1-,0,0,1,-181.018,-150.787"><stop offset="0" stop-color="#27aae1"/><stop offset="1" stop-color="#115489"/></linearGradient><linearGradient x1="4.5025" y1="26.1437" x2="115.4957" y2="26.1437" gradientUnits="userSpaceOnUse" id="color-2-,0,0,1,-181.018,-150.787"><stop offset="0" stop-color="#2f7eba"/><stop offset="0.506" stop-color="#3f9dd6"/><stop offset="1" stop-color="#3e97d1"/></linearGradient></defs><g><g data-paper-data="{&quot;isPaintingLayer&quot;:true}" fill-rule="nonzero" stroke-linecap="butt" stroke-linejoin="miter" stroke-miterlimit="10" stroke-dasharray="" stroke-dashoffset="0" style="mix-blend-mode: normal"><path d="M 120 26.143 C 120 40.559 108.271 52.287 93.856 52.287 L 26.143 52.287 C 11.728 52.287 0 40.56 0 26.143 C 0 11.728 11.727 0 26.143 0 L 93.856 0 C 108.271 0 120 11.728 120 26.143 Z " fill="url(#color-1-,0,0,1,-181.018,-150.787)" stroke-width="1" stroke="none"/><path d="M 115.496 26.143 C 115.496 38.095 105.808 47.784 93.856 47.784 L 26.143 47.784 C 14.191 47.784 4.502 38.095 4.502 26.143 L 4.502 26.143 C 4.502 14.192 14.191 4.503 26.143 4.503 L 93.856 4.503 C 105.808 4.503 115.496 14.192 115.496 26.143 Z " fill="url(#color-2-,0,0,1,-181.018,-150.787)" stroke-width="1" stroke="none"/><text transform="matrix(0.5,0,0,0.5,28.153850000000006,26.46929)" font-size="40" xml:space="preserve" fill="#000000" fill-rule="nonzero" stroke="none" stroke-width="1" stroke-linecap="butt" stroke-linejoin="miter" stroke-miterlimit="10" stroke-dasharray="" stroke-dashoffset="0" font-family="Sans Serif" font-weight="normal" text-anchor="start" style="mix-blend-mode: normal"><tspan x="0" dy="0">Normal</tspan></text><text transform="matrix(0.18599,0,0,0.18599,38.253389999999996,45.40439000000001)" font-size="40" xml:space="preserve" fill="#000000" fill-rule="nonzero" stroke="none" stroke-width="1" stroke-linecap="butt" stroke-linejoin="miter" stroke-miterlimit="10" stroke-dasharray="" stroke-dashoffset="0" font-family="Sans Serif" font-weight="normal" text-anchor="start" style="mix-blend-mode: normal"><tspan x="0" dy="0">Tap to change</tspan></text></g></g></svg>