<svg version="1.1" xmlns="http://www.w3.org/2000/svg" xmlns:xlink="http://www.w3.org/1999/xlink" width="493.5" height="380.5" viewBox="0,0,493.5,380.5"><g transform="translate(7.75,5.25)"><g data-paper-data="{&quot;isPaintingLayer&quot;:true}" fill-rule="nonzero" stroke-linecap="butt" stroke-linejoin="miter" stroke-miterlimit="10" stroke-dasharray="" stroke-dashoffset="0" style="mix-blend-mode: normal"><path d="M-4.5,99v-104h490v104z" fill="#1c2cd4" stroke="#000000" stroke-width="0.5"/><path d="M-7.5,366v-275h169v275z" fill="#d1ff21" stroke="#000000" stroke-width="0.5"/><path d="M158.5,375v-287h323v287z" fill="#ff2121" stroke="#000000" stroke-width="0.5"/><text transform="translate(148.5,18) scale(0.5,0.5)" font-size="40" xml:space="preserve" fill="#ff2121" fill-rule="nonzero" stroke="none" stroke-width="1" stroke-linecap="butt" stroke-linejoin="miter" stroke-miterlimit="10" stroke-dasharray="" stroke-dashoffset="0" font-family="Sans Serif" font-weight="normal" text-anchor="start" style="mix-blend-mode: normal"><tspan x="0" dy="0">Game Mode</tspan></text><text transform="translate(11.5,132.25) scale(0.99837,0.99837)" font-size="40" xml:space="preserve" fill="#1c2cd4" fill-rule="nonzero" stroke="none" stroke-width="1" stroke-linecap="butt" stroke-linejoin="miter" stroke-miterlimit="10" stroke-dasharray="" stroke-dashoffset="0" font-family="Sans Serif" font-weight="normal" text-anchor="start" style="mix-blend-mode: normal"><tspan x="0" dy="0">News</tspan></text><path d="M359.5,336.5c0,6.35127 -25.74363,11.5 -57.5,11.5c-31.75637,0 -57.5,-5.14873 -57.5,-11.5c0,-6.35127 25.74363,-11.5 57.5,-11.5c31.75637,0 57.5,5.14873 57.5,11.5z" fill="#00e6ff" stroke="none" stroke-width="0"/><path d="M282.5,307.5c0,6.35127 -27.08677,11.5 -60.5,11.5c-33.41323,0 -60.5,-5.14873 -60.5,-11.5c0,-6.35127 27.08677,-11.5 60.5,-11.5c33.41323,0 60.5,5.14873 60.5,11.5z" fill="#00e6ff" stroke="none" stroke-width="0"/><path d="M471.5,321c0,6.07513 -23.28119,11 -52,11c-28.71881,0 -52,-4.92487 -52,-11c0,-6.07513 23.28119,-11 52,-11c28.71881,0 52,4.92487 52,11z" fill="#00e6ff" stroke="none" stroke-width="0"/><text transform="translate(209.5,126) scale(0.5,0.67335)" font-size="40" xml:space="preserve" fill="#d1ff21" fill-rule="nonzero" stroke="none" stroke-width="1" stroke-linecap="butt" stroke-linejoin="miter" stroke-miterlimit="10" stroke-dasharray="" stroke-dashoffset="0" font-family="Sans Serif" font-weight="normal" text-anchor="start" style="mix-blend-mode: normal"><tspan x="0" dy="0">There are        Players</tspan></text><text transform="translate(312.11275,17.35294) scale(0.5,0.5)" font-size="40" xml:space="preserve" fill="#ff6666" fill-rule="nonzero" stroke="none" stroke-width="1" stroke-linecap="butt" stroke-linejoin="miter" stroke-miterlimit="10" stroke-dasharray="" stroke-dashoffset="0" font-family="Sans Serif" font-weight="normal" text-anchor="start" style="mix-blend-mode: normal"><tspan x="0" dy="0">Press space</tspan><tspan x="0" dy="46.150000000000006px">to play</tspan></text><text transform="translate(4.72531,25.49383) scale(0.5,0.5)" font-size="40" xml:space="preserve" fill="#000000" fill-rule="nonzero" stroke="none" stroke-width="1" stroke-linecap="butt" stroke-linejoin="miter" stroke-miterlimit="10" stroke-dasharray="" stroke-dashoffset="0" font-family="Sans Serif" font-weight="normal" text-anchor="start" style="mix-blend-mode: normal"><tspan x="0" dy="0">Game made</tspan><tspan x="0" dy="46.15px">by Hectors1783</tspan></text></g></g></svg>