<svg xmlns="http://www.w3.org/2000/svg" xmlns:xlink="http://www.w3.org/1999/xlink" version="1.1" width="103.55211" height="134.23776" viewBox="0,0,103.55211,134.23776"><g><g data-paper-data="{&quot;isPaintingLayer&quot;:true}" stroke-linecap="butt" stroke-linejoin="miter" stroke-miterlimit="10" stroke-dasharray="" stroke-dashoffset="0" style="mix-blend-mode: normal"><g><path d="M 60.1542 88.3122 L 50.0512 87.7122 L 33.9622 81.8372 L 25.2462 72.9122 L 20.9992 57.8182 L 27.1262 43.2872 L 37.0012 34.5122 L 47.3612 30.8122 L 58.6352 29.2122 L 70.3012 30.1122 L 82.5262 33.3122 L 94.7782 39.2122 L 100.5562 47.2122 L 101.5532 51.8122 L 102.5492 60.1902 L 100.9552 68.5122 L 96.7712 76.6122 L 91.2922 81.8122 L 82.2272 86.9122 L 68.9782 89.5122 L 60.1542 88.3122 " fill="#ffffff" fill-rule="evenodd" stroke-width="1" stroke="none"/><path d="M 59.4392 0.8372 L 62.6522 2.3372 L 65.5662 6.8372 L 64.7442 12.9872 L 58.6352 15.6872 L 52.7392 14.4122 L 49.2782 9.0872 L 50.1752 5.0372 L 54.7332 1.7372 L 59.4392 0.8372 " fill="#ef463c" fill-rule="evenodd" stroke-width="1" stroke="none"/><path d="M 95.0032 50.2622 L 97.5432 61.6622 L 97.5432 69.8372 L 92.6872 70.7372 L 88.5032 67.8122 L 87.6062 73.4372 C 87.6062 73.4372 83.4972 81.1622 83.3472 81.3872 C 83.1982 81.6122 76.2502 85.9622 76.2502 85.9622 L 74.5312 88.2122 L 77.6692 87.9872 L 76.4742 93.3122 L 75.9512 98.3372 L 78.1182 103.5122 L 79.9852 109.7372 L 81.6292 116.6372 L 82.8242 121.2872 L 82.1522 124.8872 L 78.6412 126.1622 L 75.8012 126.0872 L 72.7382 128.7122 L 66.0142 129.8372 L 61.6732 128.4122 L 58.6352 123.6872 L 56.0032 110.0372 L 51.2212 111.6122 L 41.7332 113.2622 L 37.5492 113.3372 L 38.3702 115.3622 L 39.3422 123.5372 L 38.9682 127.3622 L 35.1582 129.9122 L 31.5722 130.1372 L 25.5202 132.8372 L 18.7962 132.0872 C 18.7962 132.0872 16.4052 129.7622 16.2552 129.5372 C 16.1062 129.3122 13.7152 121.8872 13.7152 121.8872 L 12.4452 113.9372 L 13.3422 95.5622 L 10.4282 93.9122 L 5.4222 88.8122 L 1.6122 82.0622 L 0.8652 76.9622 L 1.5372 74.6372 L 4.0772 73.7372 L 6.6182 75.3122 L 10.6522 81.5372 L 14.2382 87.3872 L 17.3012 89.5122 L 23.7272 87.4622 L 31.7212 90.7622 L 41.2842 90.7622 L 51.7762 89.8622 L 53.7612 87.3122 L 48.0832 83.9372 L 42.7782 76.9622 L 41.3592 72.2372 L 40.0892 69.0122 L 37.6232 71.7872 C 37.6232 71.7872 34.5602 74.3372 34.3362 74.2622 C 34.1122 74.1872 31.9452 72.1622 31.9452 72.1622 L 29.1062 65.9882 L 28.7332 60.6122 L 28.7332 51.3122 L 48.5312 51.3122 L 52.7392 49.7372 L 67.6582 48.4622 L 78.2672 50.4122 C 78.2672 50.4122 92.1642 47.3372 92.6872 47.2622 Z " fill="#fcb322" fill-rule="evenodd" stroke-width="1" stroke="none"/><path d="M 43.9742 77.8622 C 43.9742 77.8622 45.2442 80.9372 45.3932 81.1622 C 45.5432 81.3872 49.2042 84.2372 49.2042 84.2372 L 53.9112 88.0622 L 46.7382 90.8372 L 44.4972 97.9622 L 44.5722 103.1372 L 45.9162 107.3372 L 48.6812 112.1372 L 40.7612 113.4872 L 35.6062 112.5122 L 34.1872 110.7122 L 32.5432 104.4872 L 32.5432 98.3372 L 33.5142 92.7122 L 33.5892 90.9872 L 24.9222 88.7372 C 24.9222 88.7372 23.6522 86.1122 23.7272 85.8122 C 23.8012 85.5122 23.7272 79.8122 23.7272 79.8122 L 25.0722 76.5122 L 34.8592 77.1122 L 42.0312 77.1122 Z " fill="#71cbd2" fill-rule="evenodd" stroke-width="1" stroke="none"/><path d="M 25.3372 74.8932 C 24.4882 73.6662 23.4802 72.6312 22.9802 71.3912 C 22.1322 69.2862 21.5062 67.0752 20.9602 64.8652 C 19.6412 59.5332 20.5672 54.4522 22.9052 49.5742 C 24.5042 46.2362 26.2072 42.9342 28.7902 40.2502 C 30.4982 38.4772 32.4222 36.9032 34.3212 35.3292 C 38.9312 31.5082 44.4222 29.9352 50.2192 29.1442 C 53.4042 28.7102 56.5762 28.1722 60.0252 27.6402 C 59.5792 24.0792 59.1232 20.4402 58.6632 16.7632 C 57.7042 16.6262 56.8832 16.4392 56.0572 16.4042 C 52.5262 16.2512 50.6462 14.0012 49.1382 11.1412 C 46.7202 6.5572 50.4332 1.6082 54.6122 0.4542 C 56.5642 -0.0848 58.4662 -0.1448 60.4242 0.2782 C 63.0532 0.8442 64.6752 2.6302 65.6232 4.9532 C 66.2132 6.4002 66.3872 8.0422 66.5922 9.6172 C 66.9092 12.0492 65.3262 14.4052 62.9872 15.1932 C 62.3922 15.3922 61.7972 15.5922 61.0862 15.8302 C 61.3712 19.8162 61.6542 23.7982 61.9412 27.8112 C 64.1162 28.0092 66.3092 28.1192 68.4752 28.4272 C 72.3172 28.9732 76.1452 29.5382 79.8662 30.7832 C 84.2442 32.2482 88.4432 34.0902 92.4502 36.3452 C 93.8592 37.1382 95.0162 38.3902 96.2652 39.4582 C 98.6692 41.5162 100.9132 44.9362 101.9562 47.9412 C 102.2062 48.6612 102.3812 49.3842 102.6222 50.0872 C 104.1422 54.5192 103.4822 59.4742 102.8612 64.0802 C 102.4182 67.3722 101.2682 70.3522 99.8662 73.2362 C 98.9852 75.0492 97.6522 76.7002 96.2732 78.1952 C 93.0812 81.6552 89.4922 84.6672 85.1842 86.6582 C 83.1822 87.5842 81.1152 88.4112 79.0052 89.0362 C 78.1152 89.3002 78.2232 89.8462 78.1172 90.3612 C 77.6632 92.5592 77.2662 94.7692 76.8512 96.9762 C 76.8062 97.2142 76.6892 97.4922 76.7642 97.6912 C 77.3142 99.1452 77.9662 100.5592 78.4672 102.0282 C 79.3302 104.5642 80.1982 107.1052 80.8982 109.6882 C 81.9052 113.4042 82.9122 117.1312 83.6082 120.9112 C 83.8752 122.3622 83.4452 124.0132 83.0492 125.4972 C 82.6372 127.0422 80.9872 127.0542 79.7762 127.4352 C 78.9542 127.6932 77.9822 127.4502 77.0802 127.4912 C 76.6942 127.5092 76.1352 127.5502 75.9592 127.7982 C 73.8462 130.7742 70.8212 131.4842 67.4452 131.3442 C 66.4142 131.3022 65.3612 131.2872 64.3632 131.0592 C 61.9342 130.5052 60.0412 129.2392 58.8052 126.9322 C 57.0492 123.6582 56.7212 119.9872 55.6892 116.5152 C 55.2732 115.1112 55.0852 113.6392 54.7442 111.9522 C 53.9522 112.1402 53.1342 112.2942 52.3412 112.5312 C 48.0942 113.8012 43.7912 114.6652 39.1342 114.3372 C 39.1342 115.1152 38.9452 115.9012 39.1672 116.5452 C 40.1522 119.3992 40.4992 122.3462 40.5762 125.3302 C 40.5942 126.0492 40.3972 126.8392 40.0822 127.4892 C 38.3672 131.0262 35.5872 132.0582 32.3732 131.0192 C 32.1342 130.9422 31.7202 131.1092 31.5092 131.2992 C 29.0312 133.5282 26.1762 134.4862 22.8402 134.1832 C 21.3342 134.0472 19.9072 133.8862 18.5272 133.1572 C 15.2272 131.4132 13.9532 128.4522 13.3542 125.0062 C 13.1652 123.9192 12.8892 122.8432 12.5802 121.7832 C 11.5462 118.2382 11.2322 114.5832 10.9442 110.9302 C 10.7782 108.8122 10.6202 106.6662 10.7752 104.5552 C 10.9592 102.0292 11.4162 99.5172 11.8962 97.0252 C 12.0442 96.2562 11.9542 95.7752 11.3212 95.4552 C 7.7042 93.6222 5.5482 90.4182 3.4242 87.1482 C 1.5562 84.2702 0.5402 81.1852 0.0672 77.7652 C -0.1718 76.0432 0.2352 74.8902 1.1492 73.6712 C 2.4442 71.9432 3.9162 71.8122 5.6902 73.0342 C 7.5852 74.3392 8.5912 76.2432 9.5092 78.2212 C 10.6422 80.6622 12.0032 83.0152 13.6672 85.1322 C 14.4862 86.1722 15.3772 87.2332 16.3972 88.0822 C 17.5462 89.0422 18.0232 88.4372 19.2502 87.8212 C 19.9162 87.4862 21.6762 87.1042 22.2502 86.5082 C 22.9092 85.8242 22.2692 84.9052 22.1572 84.1212 C 22.0292 83.2282 22.0742 82.1972 22.1632 81.2982 C 22.3652 79.2532 23.1442 77.3212 24.3912 75.6932 C 24.6102 75.4062 24.9502 75.2142 25.3372 74.8932 Z M 76.0882 87.1362 C 76.5402 87.3922 76.6152 87.4722 76.6772 87.4632 C 77.0092 87.4172 77.3442 87.3732 77.6672 87.2862 C 82.6422 85.9432 87.1792 83.7442 90.9822 80.2072 C 92.7312 78.5812 94.5542 76.9672 95.9762 75.0702 C 98.3542 71.8962 99.8952 68.3362 100.6442 64.3312 C 101.5042 59.7352 101.3532 55.3012 99.9342 50.9102 C 99.2922 48.9262 98.5062 46.9482 97.4802 45.1422 C 96.5652 43.5322 95.4822 41.8152 94.0322 40.7512 C 88.5882 36.7612 82.6402 33.7682 76.0202 32.1272 C 70.6092 30.7872 65.1402 29.9452 59.6162 30.3692 C 54.4402 30.7672 49.2512 31.2812 44.2242 32.9242 C 40.5712 34.1182 37.2982 35.8252 34.3332 38.2272 C 29.2062 42.3802 25.5312 47.5812 23.6992 53.9102 C 23.0052 56.3082 22.9172 58.9632 23.0072 61.4852 C 23.0812 63.5722 23.7812 65.6452 24.2862 67.7032 C 24.5682 68.8572 24.7862 70.1252 25.4282 71.0732 C 27.8032 74.5842 30.2232 78.0892 34.0932 80.1972 C 35.7512 81.1002 37.2982 82.2312 39.0102 83.0032 C 41.2922 84.0322 43.6622 84.8862 46.0412 85.6742 C 47.5122 86.1612 49.0692 86.3862 50.8322 86.7822 C 50.5842 86.4492 50.5492 86.3472 50.4862 86.3242 C 46.7952 84.9942 44.3722 82.3552 42.7402 78.8632 C 42.6032 78.5702 42.1222 78.2702 41.7952 78.2642 C 40.1722 78.2332 38.4762 78.0732 36.8702 78.3232 C 35.9432 78.4672 34.6692 78.9282 34.0352 77.8882 C 32.9422 76.0972 35.4132 76.2982 36.3072 76.2882 C 37.9542 76.2702 39.6352 76.0752 41.2812 75.9702 C 40.7802 74.2082 40.3332 72.6382 39.8222 70.8432 C 38.9352 71.8042 38.2862 72.6312 37.5102 73.3132 C 36.6562 74.0632 35.9242 75.0762 34.5412 74.9452 C 32.9222 74.7932 31.5352 74.2722 30.7492 72.7442 C 30.2932 71.8572 29.9152 70.9282 29.5402 70.0032 C 28.4672 67.3602 27.5392 64.6682 27.5382 61.7722 C 27.5382 58.9202 27.5532 56.0642 27.7012 53.2182 C 27.8282 50.8032 28.5452 50.1572 31.0192 50.0682 C 33.3852 49.9832 35.7602 49.9482 38.1252 50.0332 C 41.3962 50.1492 44.6612 50.4102 47.9292 50.5792 C 48.4322 50.6052 49.0452 50.6372 49.4312 50.3902 C 52.3212 48.5422 55.5112 47.5922 58.8632 47.2122 C 62.9192 46.7522 66.9902 46.8622 70.9432 47.9162 C 72.6702 48.3772 74.7012 49.6542 76.4512 49.3572 C 78.5862 48.9932 80.8332 48.6852 82.9252 48.1182 C 84.2732 47.7522 85.6672 47.5832 87.0312 47.2362 C 88.9622 46.7452 91.6202 46.1942 93.6052 46.6122 C 95.0762 46.9222 95.9632 48.9652 96.5562 50.3092 C 97.8802 53.3082 98.3512 56.5692 98.4962 59.8212 C 98.6372 62.9802 98.9472 65.9322 98.5792 69.0802 C 98.3952 70.6452 96.9452 71.8342 95.3822 71.8642 C 93.4252 71.9032 91.5522 71.4592 89.8222 70.2222 C 88.8652 78.7822 83.9482 84.0462 76.0882 87.1362 Z M 62.6482 49.3342 C 59.9022 49.4602 57.1422 50.0972 54.4772 50.6912 C 52.0402 51.2352 50.1762 52.8492 48.3492 54.4142 C 47.5422 55.1062 46.8742 56.0882 46.4432 57.0712 C 45.0662 60.2072 43.7342 63.3702 42.5912 66.5982 C 42.1652 67.8042 42.0152 69.2692 42.2502 70.5202 C 42.9062 74.0072 44.4292 77.2012 46.3492 80.1582 C 47.1282 81.3592 48.1512 82.5742 49.3542 83.2832 C 51.2022 84.3702 53.2902 85.0552 55.2992 85.8542 C 56.3482 86.2702 57.4232 86.7402 58.5252 86.8812 C 62.5172 87.3922 66.5462 87.5592 70.5122 86.7992 C 74.8612 85.9662 78.7542 83.9862 82.2042 81.2222 C 84.5762 79.3222 85.8652 76.7052 86.6342 73.7772 C 87.6842 69.7852 87.1882 66.5082 85.5892 62.8132 C 84.4882 60.2692 82.5872 57.3832 80.3252 55.7622 C 79.3412 55.0572 78.4742 54.1732 77.4492 53.5372 C 75.7072 52.4562 73.9892 51.0912 72.0692 50.6002 C 69.2082 49.8682 66.5442 49.3122 63.5982 49.3122 C 63.2832 49.3122 62.9652 49.3202 62.6482 49.3342 Z M 54.5882 109.3122 C 54.5932 109.3412 54.5292 109.0632 54.5012 108.7812 C 54.4222 107.9692 53.2112 103.5172 55.0342 103.9082 C 56.3512 104.1922 56.4442 107.6392 56.5822 108.5472 C 56.7132 109.4172 57.0612 110.2722 57.0842 111.1402 C 57.1942 115.2172 58.2022 119.1162 59.4002 122.9652 C 60.2112 125.5712 61.2332 128.1432 64.3642 128.7622 C 66.2882 129.1432 68.1892 129.2922 70.1722 128.7072 C 73.6932 127.6692 75.2132 125.4702 74.5732 121.8182 C 74.1242 119.2552 73.7092 116.6862 73.1702 114.1422 C 72.8332 112.5492 72.4412 110.9692 72.0642 109.3852 C 71.8422 108.4512 71.3082 106.8732 71.4732 105.9322 C 71.2262 106.4532 70.2532 107.1852 69.6902 106.5022 C 68.3912 104.9262 71.6842 102.9342 72.2512 101.8602 C 73.0652 100.3192 73.8512 98.7162 74.3132 97.0452 C 74.9682 94.6822 75.3212 92.2332 75.7982 89.8422 C 74.1182 90.1092 72.6822 90.3882 71.2332 90.5562 C 69.7582 90.7272 68.2732 90.8352 66.7882 90.8842 C 65.7612 90.9182 64.7212 90.8652 63.6992 90.7462 C 62.1302 90.5612 60.5612 90.0442 59.0092 90.1052 C 56.5412 90.2012 54.0852 90.6472 51.6262 90.9662 C 50.9902 91.0492 50.3562 91.1822 49.7322 91.3362 C 48.8222 91.5592 47.7022 91.5762 47.0812 92.1372 C 46.3722 92.7792 46.0712 94.3732 45.7482 95.2682 C 45.3412 96.3942 45.3252 97.6602 45.2422 98.8542 C 44.9642 102.8542 45.8582 105.8322 48.0912 109.1492 C 48.5042 109.7642 48.9902 110.3312 49.3782 110.8372 C 51.0602 110.3452 52.7222 109.8592 54.5882 109.3122 Z M 20.0782 89.5132 C 19.7962 89.6802 19.5232 89.8692 19.2192 90.0922 C 17.1732 91.5962 14.8872 94.4912 14.1352 96.9702 C 13.1032 100.3752 12.6792 104.0052 12.8842 107.6122 C 13.0372 110.3112 13.5782 112.9902 13.6732 115.6882 C 13.8222 119.8842 15.2862 123.7412 16.4822 127.6582 C 17.0592 129.5512 18.4142 131.0922 20.4162 131.5962 C 24.2232 132.5562 27.6972 132.0522 30.1162 128.5372 C 30.6032 127.8292 31.0422 126.8562 30.9822 126.0442 C 30.8072 123.6802 30.3622 121.3342 30.0352 118.9812 C 29.7262 116.7542 29.4442 114.5232 29.1062 112.3012 C 29.0742 112.0922 28.7582 111.8472 28.5232 111.7632 C 27.5832 111.4252 26.5952 111.2112 25.6822 110.8152 C 25.2392 110.6232 24.7722 110.1922 24.6042 109.7562 C 24.4922 109.4652 24.8242 108.9252 25.0852 108.6002 C 26.0502 107.3992 30.4732 110.2562 31.6672 110.6332 C 34.1872 111.4302 33.3222 109.8852 32.7032 108.2352 C 31.9072 106.1122 31.5782 103.4492 31.6742 101.1942 C 31.7892 98.4762 31.1982 95.6592 32.3642 93.0172 C 32.4772 92.7592 32.5182 92.4092 32.4422 92.1462 C 32.3702 91.8972 32.1262 91.5502 31.9122 91.5132 C 29.2912 91.0672 26.7232 90.7102 24.4132 89.2132 C 22.8402 88.1932 21.7532 88.5262 20.0782 89.5132 Z M 29.3782 60.1772 C 29.4312 64.2292 30.8182 67.8642 32.6322 71.3642 C 33.2162 72.4932 34.1212 72.7212 35.1412 72.0032 C 39.5902 68.8762 40.8022 64.1232 42.5272 59.1942 C 43.0762 57.6262 43.5332 56.0112 44.2642 54.5152 C 44.7692 53.4822 45.6152 52.2832 43.9322 52.0372 C 39.9382 51.4532 35.9502 51.7242 31.9632 52.0542 C 30.7492 52.1542 29.8912 52.7442 29.7902 54.0702 C 29.6362 56.1052 29.5142 58.1412 29.3782 60.1772 Z M 80.3082 52.0042 C 81.1402 52.7572 81.8182 53.5002 82.6182 54.0712 C 85.7372 56.3002 87.2422 59.5872 88.2452 63.0742 C 88.9242 65.4382 89.5622 67.6012 91.8772 68.9252 C 93.7632 70.0032 95.9582 69.4752 96.2792 67.4662 C 96.7252 64.6842 96.6422 61.8462 95.9912 59.1062 C 95.5852 57.4012 95.6022 55.5922 95.0522 53.8762 C 94.6122 52.4992 94.0052 50.3592 92.7062 49.5072 C 90.8592 48.2962 87.3742 49.7142 85.4282 50.0122 C 83.6272 50.2902 81.9202 50.7522 80.3082 52.0042 Z M 57.4542 14.6592 C 58.6642 14.3032 60.6632 13.7332 62.6472 13.1122 C 62.9372 13.0212 63.1862 12.7142 63.3972 12.4592 C 64.7792 10.7892 64.6932 6.6222 63.2582 4.6822 C 61.4092 2.1832 58.8792 1.9342 56.0802 2.4142 C 53.3912 2.8762 51.4872 4.4562 50.6092 6.8942 C 49.3602 10.3562 52.8832 14.7462 57.4542 14.6592 Z M 50.0302 89.0212 C 47.1542 88.0822 44.3242 87.2322 41.5472 86.2322 C 37.9062 84.9212 34.3942 83.3052 31.2482 81.0132 C 29.8282 79.9782 28.5112 78.8022 27.1662 77.6672 C 26.8592 77.4082 26.6322 77.0532 26.3692 76.7412 C 26.0492 77.1142 25.6492 77.4442 25.4242 77.8692 C 24.3872 79.8282 24.3902 81.9402 24.4212 84.1072 C 24.4512 86.1802 25.5532 87.6352 27.1312 88.3002 C 29.0432 89.1072 31.2242 89.4952 33.3122 89.6032 C 36.7212 89.7772 40.1502 89.6292 43.5692 89.5162 C 45.7302 89.4462 47.8852 89.1912 50.0302 89.0212 Z M 15.8372 90.3592 C 15.5682 90.1232 15.2442 89.9122 15.0142 89.6242 C 13.5802 87.8302 12.0852 86.0782 10.7752 84.1962 C 9.8272 82.8332 9.0092 81.3462 8.3632 79.8162 C 7.6272 78.0722 6.7652 76.4452 5.4112 75.1292 C 4.4952 74.2382 3.2712 74.4482 2.7822 75.6232 C 2.4532 76.4122 2.1722 77.3412 2.2602 78.1662 C 2.7172 82.5072 4.7462 86.2252 7.4102 89.5282 C 8.8762 91.3452 10.8642 92.7402 12.6512 94.3562 C 13.7752 92.9472 14.7772 91.6882 15.8372 90.3592 Z M 75.5972 101.1282 C 75.4862 101.1282 75.3752 101.1282 75.2642 101.1272 C 74.8302 102.2272 74.2502 103.2972 74.0112 104.4402 C 73.8472 105.2252 74.1332 106.1142 74.2592 106.9502 C 74.6052 109.2552 74.9382 111.5622 75.3442 113.8562 C 75.7232 116.0012 76.2722 118.1182 76.5872 120.2712 C 76.7862 121.6302 76.6632 123.0342 76.7582 124.4112 C 76.7762 124.6642 77.1162 125.0372 77.3732 125.1082 C 79.0582 125.5702 80.8842 124.6252 81.1102 122.9052 C 81.3162 121.3252 81.3102 119.6162 80.9282 118.0812 C 79.9992 114.3542 78.8342 110.6842 77.6902 107.0152 C 77.0722 105.0282 76.3002 103.0892 75.5972 101.1282 Z M 31.6192 112.9732 C 31.9572 115.7902 32.3492 118.3912 32.5612 121.0082 C 32.7552 123.4012 32.7252 125.8132 32.8752 128.2122 C 32.8962 128.5632 33.3852 129.1832 33.6212 129.1662 C 34.3782 129.1112 35.2592 129.0072 35.8382 128.5782 C 37.4922 127.3492 38.2312 125.5452 38.1002 123.5172 C 37.8182 119.1612 38.0092 114.7622 32.9812 113.2442 C 32.5782 113.1222 32.1522 113.0752 31.6192 112.9732 Z M 44.8362 107.8362 C 44.7422 107.7472 44.6482 107.6772 44.5542 107.6322 C 43.7182 107.2322 41.7252 108.1012 40.7992 108.2842 C 39.5662 108.5292 38.3522 108.8542 37.1322 109.1572 C 36.2542 109.3742 35.3262 109.2942 35.6682 110.3562 C 36.0532 111.5562 38.2142 112.2132 39.3122 112.2122 C 41.3262 112.2102 43.4202 112.4472 45.4062 112.0022 C 46.6032 111.7342 46.7252 111.5162 46.2972 110.4042 C 45.9652 109.5432 45.5162 108.4812 44.8362 107.8362 Z M 33.5762 101.0872 C 36.9442 100.5912 40.0202 100.1372 43.3782 99.6432 C 43.3782 98.7082 43.3672 97.7202 43.3822 96.7302 C 43.3942 95.9532 43.0992 95.7132 42.2942 95.8412 C 40.9412 96.0562 39.5682 96.1492 38.2002 96.2702 C 36.6902 96.4042 35.1782 96.5132 33.5762 96.6402 C 33.5762 98.0752 33.5762 99.5152 33.5762 101.0872 Z M 34.1692 103.0422 C 34.0072 103.1532 33.8852 103.2962 33.8212 103.4812 C 33.5942 104.1382 33.8612 106.7992 34.5082 107.2232 C 35.2652 107.7162 37.3442 106.8762 38.1072 106.6402 C 39.8352 106.1052 41.6162 105.8952 43.3722 105.4522 C 44.2482 105.2312 44.3012 105.3722 44.2102 104.3662 C 44.1382 103.5632 43.6772 102.8382 43.6652 102.0252 C 43.6662 102.0922 37.5232 102.5492 37.0732 102.5922 C 36.2292 102.6742 34.8462 102.5782 34.1692 103.0422 Z M 45.0512 91.7512 C 42.4622 91.3932 39.5842 91.6892 36.9642 91.7182 C 36.3142 91.7262 35.3142 91.8312 34.8062 92.3112 C 34.2872 92.8032 34.2192 93.6582 33.9562 94.2912 C 36.1382 94.3272 38.1762 94.2942 40.3832 94.1072 C 41.3432 94.0262 42.3762 94.1652 43.3092 93.8712 C 43.7132 93.7442 44.2052 93.5512 44.5082 93.2382 C 44.6192 93.1242 45.3432 91.7862 45.0952 91.7562 C 45.0802 91.7552 45.0652 91.7532 45.0512 91.7512 Z " fill="#2a3d98" fill-rule="nonzero" stroke-width="1" stroke="none"/><path d="M 12.6684 94.4031 C 10.8814 92.7871 8.8609 91.3928 7.3949 89.5758 C 4.7309 86.2728 2.6806 82.4731 2.2236 78.1321 C 2.1356 77.3071 2.4243 76.3713 2.7533 75.5823 C 3.2423 74.4073 4.4771 74.1916 5.3931 75.0826 C 6.7471 76.3986 7.62 78.0227 8.356 79.7667 C 9.002 81.2967 9.8766 82.8254 10.8246 84.1884 C 12.1346 86.0704 13.6181 87.8628 15.0521 89.6568 C 15.2821 89.9448 15.606 90.1559 15.875 90.3919 C 14.815 91.7209 13.7924 92.9941 12.6684 94.4031 Z " data-paper-data="{&quot;noHover&quot;:false,&quot;origItem&quot;:[&quot;Path&quot;,{&quot;applyMatrix&quot;:true,&quot;segments&quot;:[[[204.093,203.647],[-1.06,1.329],[-0.269,-0.236]],[[203.27,202.912],[0.23,0.288],[-1.434,-1.794]],[[199.031,197.484],[1.31,1.882],[-0.948,-1.363]],[[196.619,193.104],[0.646,1.53],[-0.736,-1.744]],[[193.667,188.417],[1.354,1.316],[-0.916,-0.891]],[[191.038,188.911],[0.489,-1.175],[-0.329,0.789]],[[190.516,191.454],[-0.088,-0.825],[0.457,4.341]],[[195.666,202.816],[-2.664,-3.303],[1.466,1.817]],[[200.907,207.644],[-1.787,-1.616],[1.124,-1.409]]],&quot;closed&quot;:true,&quot;fillColor&quot;:[0,0,0,1],&quot;fillRule&quot;:&quot;evenodd&quot;}]}" fill="#21c0ff" fill-rule="evenodd" stroke-width="0.5" stroke="none"/><path d="M 32.9695 113.1956 C 37.9975 114.7136 37.8581 119.1914 38.1401 123.5474 C 38.2711 125.5754 37.4986 127.3988 35.8447 128.6278 C 35.2656 129.0568 34.3706 129.1606 33.6136 129.2156 C 33.3776 129.2326 32.8828 128.6113 32.8618 128.2603 C 32.7118 125.8613 32.7052 123.3998 32.5112 121.0068 C 32.2993 118.3898 31.9386 115.7438 31.6006 112.9268 C 32.1336 113.0288 32.5665 113.0736 32.9695 113.1956 Z " data-paper-data="{&quot;noHover&quot;:false,&quot;origItem&quot;:[&quot;Path&quot;,{&quot;applyMatrix&quot;:true,&quot;segments&quot;:[[[219.875,226.261],[0.533,0.102],[0.338,2.817]],[[220.817,234.296],[-0.212,-2.617],[0.194,2.393]],[[221.131,241.5],[-0.15,-2.399],[0.021,0.351]],[[221.877,242.454],[-0.236,0.017],[0.757,-0.055]],[[224.094,241.866],[-0.579,0.429],[1.654,-1.229]],[[226.356,236.805],[0.131,2.028],[-0.282,-4.356]],[[221.237,226.532],[5.028,1.518],[-0.403,-0.122]]],&quot;closed&quot;:true,&quot;fillColor&quot;:[0,0,0,1],&quot;fillRule&quot;:&quot;evenodd&quot;}]}" fill="#21c0ff" fill-rule="evenodd" stroke-width="0.5" stroke="none"/><path d="M 24.4163 89.1633 C 26.7263 90.6603 29.3125 91.0219 31.9335 91.4679 C 32.1475 91.5049 32.3931 91.8527 32.4651 92.1017 C 32.5411 92.3647 32.5008 92.7151 32.3878 92.9731 C 31.2218 95.6151 31.8235 98.4398 31.7085 101.1578 C 31.6125 103.4128 31.9561 106.1016 32.7521 108.2246 C 33.3711 109.8746 34.1373 111.4283 31.6173 110.6313 C 30.4233 110.2543 26.0123 107.4318 25.0473 108.6328 C 24.7863 108.9578 24.5392 109.448 24.6512 109.739 C 24.8192 110.175 25.2883 110.6328 25.7313 110.8248 C 26.6443 111.2208 27.6315 111.4381 28.5715 111.7761 C 28.8065 111.8601 29.1217 112.1079 29.1537 112.3169 C 29.4917 114.5389 29.7574 116.7932 30.0664 119.0202 C 30.3934 121.3732 30.8296 123.7249 31.0046 126.0889 C 31.0646 126.9009 30.6212 127.8758 30.1342 128.5838 C 27.7152 132.0988 24.217 132.6058 20.41 131.6458 C 18.408 131.1418 17.0414 129.5979 16.4644 127.7049 C 15.2684 123.7879 13.7788 119.909 13.6298 115.713 C 13.5348 113.015 12.9889 110.2984 12.8359 107.5994 C 12.6309 103.9924 13.0753 100.3337 14.1073 96.9287 C 14.8593 94.4497 17.1638 91.5471 19.2098 90.0431 C 19.5138 89.8201 19.7891 89.6307 20.0711 89.4637 C 21.7461 88.4767 22.8434 88.1433 24.4164 89.1633 Z " data-paper-data="{&quot;noHover&quot;:false,&quot;origItem&quot;:[&quot;Path&quot;,{&quot;applyMatrix&quot;:true,&quot;segments&quot;:[[[208.334,202.801],[1.675,-0.987],[-0.282,0.167]],[[207.475,203.38],[0.304,-0.223],[-2.046,1.504]],[[202.391,210.258],[0.752,-2.479],[-1.032,3.405]],[[201.14,220.9],[-0.205,-3.607],[0.153,2.699]],[[201.929,228.976],[-0.095,-2.698],[0.149,4.196]],[[204.738,240.946],[-1.196,-3.917],[0.577,1.893]],[[208.672,244.884],[-2.002,-0.504],[3.807,0.96]],[[218.372,241.825],[-2.419,3.515],[0.487,-0.708]],[[219.238,239.332],[0.06,0.812],[-0.175,-2.364]],[[218.291,232.269],[0.327,2.353],[-0.309,-2.227]],[[217.362,225.589],[0.338,2.222],[-0.032,-0.209]],[[216.779,225.051],[0.235,0.084],[-0.94,-0.338]],[[213.938,224.103],[0.913,0.396],[-0.443,-0.192]],[[212.86,223.044],[0.168,0.436],[-0.112,-0.291]],[[213.341,221.888],[-0.261,0.325],[0.965,-1.201]],[[219.923,223.921],[-1.194,-0.377],[2.52,0.797]],[[220.959,221.523],[0.619,1.65],[-0.796,-2.123]],[[219.93,214.482],[-0.096,2.255],[0.115,-2.718]],[[220.62,206.305],[-1.166,2.642],[0.113,-0.258]],[[220.698,205.434],[0.076,0.263],[-0.072,-0.249]],[[220.168,204.801],[0.214,0.037],[-2.621,-0.446]],[[212.669,202.501],[2.31,1.497],[-1.573,-1.02]]],&quot;closed&quot;:true,&quot;fillColor&quot;:[0,0,0,1],&quot;fillRule&quot;:&quot;evenodd&quot;}]}" fill="#21c0ff" fill-rule="evenodd" stroke-width="0.5" stroke="none"/><path d="M 49.3286 110.8433 C 48.9406 110.3373 48.4542 109.7629 48.0412 109.1479 C 45.8082 105.8309 44.9232 102.8256 45.2012 98.8256 C 45.2842 97.6316 45.3052 96.3595 45.7122 95.2335 C 46.0352 94.3385 46.3416 92.7396 47.0506 92.0976 C 47.6716 91.5366 48.7967 91.5162 49.7067 91.2932 C 50.3307 91.1392 50.9686 91.0041 51.6046 90.9211 C 54.0636 90.6021 56.5374 90.1513 59.0054 90.0553 C 60.5574 89.9943 62.1387 90.5119 63.7077 90.6969 C 64.7296 90.8159 65.7773 90.8708 66.8042 90.8368 C 68.2893 90.7878 69.7829 90.6837 71.2579 90.5127 C 72.7069 90.3447 74.149 90.0697 75.829 89.8027 C 75.352 92.1937 75.0054 94.6487 74.3504 97.0117 C 73.8884 98.6827 73.1072 100.292 72.2932 101.833 C 71.7262 102.907 68.4388 104.9108 69.7378 106.4868 C 70.3008 107.1698 71.2738 106.4378 71.5208 105.9168 C 71.3558 106.8578 71.8922 108.4508 72.1142 109.3848 C 72.4912 110.9688 72.8801 112.5664 73.2171 114.1594 C 73.7561 116.7034 74.1618 119.2881 74.6108 121.8511 C 75.2508 125.5031 73.7157 127.7138 70.1947 128.7518 C 68.2117 129.3368 66.298 129.1922 64.374 128.8112 C 61.243 128.1922 60.2072 125.621 59.3962 123.015 C 58.1982 119.166 57.1493 115.2391 57.0393 111.1621 C 57.0163 110.2941 56.6645 109.4057 56.5335 108.5357 C 56.3955 107.6277 56.3862 104.2278 55.0692 103.9438 C 53.2462 103.5528 54.4719 107.9749 54.5509 108.7869 C 54.5789 109.0689 54.6432 109.3425 54.6382 109.3135 C 52.7722 109.8605 51.0106 110.3513 49.3286 110.8433 Z " data-paper-data="{&quot;noHover&quot;:false,&quot;origItem&quot;:[&quot;Path&quot;,{&quot;applyMatrix&quot;:true,&quot;segments&quot;:[[[242.844,222.6],[-1.866,0.547],[0.005,0.029]],[[242.757,222.069],[0.028,0.282],[-0.079,-0.812]],[[243.29,217.196],[-1.823,-0.391],[1.317,0.284]],[[244.838,221.835],[-0.138,-0.908],[0.131,0.87]],[[245.34,224.428],[-0.023,-0.868],[0.11,4.077]],[[247.656,236.253],[-1.198,-3.849],[0.811,2.606]],[[252.62,242.05],[-3.131,-0.619],[1.924,0.381]],[[258.428,241.995],[-1.983,0.585],[3.521,-1.038]],[[262.829,235.106],[0.64,3.652],[-0.449,-2.563]],[[261.426,227.43],[0.539,2.544],[-0.337,-1.593]],[[260.32,222.673],[0.377,1.584],[-0.222,-0.934]],[[259.729,219.22],[-0.165,0.941],[-0.247,0.521]],[[257.946,219.79],[0.563,0.683],[-1.299,-1.576]],[[260.507,215.148],[-0.567,1.074],[0.814,-1.541]],[[262.569,210.333],[-0.462,1.671],[0.655,-2.363]],[[264.054,203.13],[-0.477,2.391],[-1.68,0.267]],[[259.489,203.844],[1.449,-0.168],[-1.475,0.171]],[[255.044,204.172],[1.485,-0.049],[-1.027,0.034]],[[251.955,204.034],[1.022,0.119],[-1.569,-0.185]],[[247.265,203.393],[1.552,-0.061],[-2.468,0.096]],[[239.882,204.254],[2.459,-0.319],[-0.636,0.083]],[[237.988,204.624],[0.624,-0.154],[-0.91,0.223]],[[235.337,205.425],[0.621,-0.561],[-0.709,0.642]],[[234.004,208.556],[0.323,-0.895],[-0.407,1.126]],[[233.498,212.142],[0.083,-1.194],[-0.278,4]],[[236.347,222.437],[-2.233,-3.317],[0.413,0.615]],[[237.634,224.125],[-0.388,-0.506],[1.682,-0.492]]],&quot;closed&quot;:true,&quot;fillColor&quot;:[0,0,0,1],&quot;fillRule&quot;:&quot;evenodd&quot;}]}" fill="#21c0ff" fill-rule="evenodd" stroke-width="0.5" stroke="none"/><path d="M 77.6909 106.9652 C 78.8349 110.6342 80.0273 114.3956 80.9563 118.1225 C 81.3383 119.6575 81.3332 121.3722 81.1272 122.9522 C 80.9012 124.6722 79.0573 125.6201 77.3723 125.1581 C 77.1153 125.0871 76.7725 124.714 76.7545 124.461 C 76.6595 123.084 76.7791 121.6797 76.5801 120.3207 C 76.2651 118.1677 75.6753 116.0156 75.2963 113.8706 C 74.8903 111.5766 74.5816 109.2111 74.2356 106.9061 C 74.1096 106.0701 73.8282 105.1789 73.9922 104.3939 C 74.2312 103.2509 74.8207 102.1781 75.2547 101.0781 C 75.3657 101.0791 75.478 101.0788 75.589 101.0788 C 76.292 103.0398 77.0729 104.9782 77.6909 106.9652 Z " data-paper-data="{&quot;noHover&quot;:false,&quot;origItem&quot;:[&quot;Path&quot;,{&quot;applyMatrix&quot;:true,&quot;segments&quot;:[[[263.853,214.416],[0.703,1.961],[-0.111,0]],[[263.52,214.415],[0.111,0.001],[-0.434,1.1]],[[262.267,217.728],[0.239,-1.143],[-0.164,0.785]],[[262.515,220.238],[-0.126,-0.836],[0.346,2.305]],[[263.6,227.144],[-0.406,-2.294],[0.379,2.145]],[[264.843,233.559],[-0.315,-2.153],[0.199,1.359]],[[265.014,237.699],[-0.095,-1.377],[0.018,0.253]],[[265.629,238.396],[-0.257,-0.071],[1.685,0.462]],[[269.366,236.193],[-0.226,1.72],[0.206,-1.58]],[[269.184,231.369],[0.382,1.535],[-0.929,-3.727]],[[265.946,220.303],[1.144,3.669],[-0.618,-1.987]]],&quot;closed&quot;:true,&quot;fillColor&quot;:[0,0,0,1],&quot;fillRule&quot;:&quot;evenodd&quot;}]}" fill="#21c0ff" fill-rule="evenodd" stroke-width="0.5" stroke="none"/><path d="M 85.4128 49.9646 C 87.3588 49.6666 90.8793 48.2504 92.7263 49.4614 C 94.0253 50.3134 94.651 52.4677 95.091 53.8447 C 95.641 55.5607 95.6352 57.4002 96.0412 59.1052 C 96.6922 61.8452 96.7598 64.7203 96.3138 67.5023 C 95.9928 69.5113 93.78 70.0503 91.894 68.9723 C 89.579 67.6483 88.9218 65.4881 88.2428 63.1241 C 87.2398 59.6371 85.6999 56.2669 82.5809 54.0379 C 81.7809 53.4669 81.1029 52.7239 80.2709 51.9709 C 81.8829 50.7189 83.6118 50.2426 85.4128 49.9646 Z " data-paper-data="{&quot;noHover&quot;:false,&quot;origItem&quot;:[&quot;Path&quot;,{&quot;applyMatrix&quot;:true,&quot;segments&quot;:[[[268.564,165.292],[1.612,-1.252],[0.832,0.753]],[[270.874,167.359],[-0.8,-0.571],[3.119,2.229]],[[276.501,176.362],[-1.003,-3.487],[0.679,2.364]],[[280.133,182.213],[-2.315,-1.324],[1.886,1.078]],[[284.535,180.754],[-0.321,2.009],[0.446,-2.782]],[[284.247,172.394],[0.651,2.74],[-0.406,-1.705]],[[283.308,167.164],[0.55,1.716],[-0.44,-1.377]],[[280.962,162.795],[1.299,0.852],[-1.847,-1.211]],[[273.684,163.3],[1.946,-0.298],[-1.801,0.278]]],&quot;closed&quot;:true,&quot;fillColor&quot;:[0,0,0,1],&quot;fillRule&quot;:&quot;evenodd&quot;}]}" fill="#21c0ff" fill-rule="evenodd" stroke-width="0.5" stroke="none"/><path d="M 63.5954 49.2623 C 66.5414 49.2623 69.2275 49.822 72.0885 50.554 C 74.0085 51.045 75.7399 52.4184 77.4819 53.4994 C 78.5069 54.1354 79.3802 55.0259 80.3642 55.7309 C 82.6262 57.3519 84.5366 60.2565 85.6376 62.8005 C 87.2366 66.4955 87.7328 69.7972 86.6828 73.7892 C 85.9138 76.7172 84.6165 79.3518 82.2445 81.2518 C 78.7945 84.0158 74.8763 86.0139 70.5273 86.8469 C 66.5613 87.6068 62.5015 87.4397 58.5095 86.9286 C 57.4075 86.7876 56.3247 86.3143 55.2757 85.8983 C 53.2667 85.0993 51.1665 84.4051 49.3185 83.3181 C 48.1155 82.6091 47.0863 81.3863 46.3073 80.1853 C 44.3873 77.2283 42.8565 74.0121 42.2005 70.5251 C 41.9655 69.2741 42.1154 67.8003 42.5414 66.5943 C 43.6844 63.3663 45.0237 60.1809 46.4007 57.0449 C 46.8317 56.0619 47.5042 55.0738 48.3112 54.3818 C 50.1382 52.8168 52.0152 51.1919 54.4522 50.6479 C 57.1172 50.0539 59.897 49.4105 62.643 49.2845 C 62.96 49.2705 63.2804 49.2623 63.5954 49.2623 Z " data-paper-data="{&quot;noHover&quot;:false,&quot;origItem&quot;:[&quot;Path&quot;,{&quot;applyMatrix&quot;:true,&quot;segments&quot;:[[[250.904,162.622],[0.317,-0.014],[-2.746,0.126]],[[242.733,163.979],[2.665,-0.594],[-2.437,0.544]],[[236.605,167.702],[1.827,-1.565],[-0.807,0.692]],[[234.699,170.359],[0.431,-0.983],[-1.377,3.136]],[[230.847,179.886],[1.143,-3.228],[-0.426,1.206]],[[230.506,183.808],[-0.235,-1.251],[0.656,3.487]],[[234.605,193.446],[-1.92,-2.957],[0.779,1.201]],[[237.61,196.571],[-1.203,-0.709],[1.848,1.087]],[[243.555,199.142],[-2.009,-0.799],[1.049,0.416]],[[246.781,200.169],[-1.102,-0.141],[3.992,0.511]],[[258.768,200.087],[-3.966,0.76],[4.349,-0.833]],[[270.46,194.51],[-3.45,2.764],[2.372,-1.9]],[[274.89,187.065],[-0.769,2.928],[1.05,-3.992]],[[273.845,176.101],[1.599,3.695],[-1.101,-2.544]],[[268.581,169.05],[2.262,1.621],[-0.984,-0.705]],[[265.705,166.825],[1.025,0.636],[-1.742,-1.081]],[[260.325,163.888],[1.92,0.491],[-2.861,-0.732]],[[251.854,162.6],[2.946,0],[-0.315,0]]],&quot;closed&quot;:true,&quot;fillColor&quot;:[0,0,0,1],&quot;fillRule&quot;:&quot;evenodd&quot;}]}" fill="#21c0ff" fill-rule="evenodd" stroke-width="0.5" stroke="none"/><path d="M 29.7563 54.0334 C 29.8573 52.7074 30.7262 52.1098 31.9402 52.0098 C 35.9272 51.6798 39.9663 51.4118 43.9603 51.9958 C 45.6432 52.2418 44.8035 53.4458 44.2985 54.4788 C 43.5675 55.9748 43.1204 57.6027 42.5714 59.1707 C 40.8464 64.0997 39.5803 68.9252 35.1313 72.0522 C 34.1113 72.7702 33.1944 72.5381 32.6104 71.4091 C 30.7964 67.9091 29.3826 64.2174 29.3296 60.1654 C 29.4656 58.1294 29.6023 56.0684 29.7563 54.0334 Z " data-paper-data="{&quot;noHover&quot;:false,&quot;origItem&quot;:[&quot;Path&quot;,{&quot;applyMatrix&quot;:true,&quot;segments&quot;:[[[217.634,173.465],[0.136,-2.036],[0.053,4.052]],[[220.888,184.652],[-1.814,-3.5],[0.584,1.129]],[[223.397,185.291],[-1.02,0.718],[4.449,-3.127]],[[230.783,172.482],[-1.725,4.929],[0.549,-1.568]],[[232.52,167.803],[-0.731,1.496],[0.505,-1.033]],[[232.188,165.325],[1.683,0.246],[-3.994,-0.584]],[[220.219,165.342],[3.987,-0.33],[-1.214,0.1]],[[218.046,167.358],[0.101,-1.326],[-0.154,2.035]]],&quot;closed&quot;:true,&quot;fillColor&quot;:[0,0,0,1],&quot;fillRule&quot;:&quot;evenodd&quot;}]}" fill="#21c0ff" fill-rule="evenodd" stroke-width="0.5" stroke="none"/></g><g fill-rule="evenodd"><path d="M 66.7382 67.9572 C 65.2782 70.3272 63.0102 71.6372 60.2572 71.7792 C 57.8092 71.9052 55.9172 70.5532 54.5142 68.5752 C 53.9792 67.8192 52.3142 65.8672 52.8412 65.0142 C 54.2022 62.8122 56.3232 67.4872 56.8232 68.0442 C 58.2732 69.6592 60.3572 69.6322 62.0882 68.4672 C 63.5302 67.4982 64.6032 66.2682 64.9442 64.3552 C 64.4912 64.3272 64.0572 64.3192 63.6262 64.2702 C 62.8062 64.1742 62.2182 63.6562 62.3452 62.8802 C 62.4172 62.4432 63.0572 61.8792 63.5292 61.7722 C 64.8412 61.4802 66.1972 61.3332 67.5422 61.2732 C 67.9172 61.2562 68.5662 61.6822 68.6422 62.0092 C 68.7562 62.4972 68.6492 63.2642 68.3192 63.5772 C 67.6642 64.1982 67.7832 64.6732 68.1712 65.3132 C 70.1092 68.5042 74.7902 68.3042 76.6402 64.8602 C 77.1912 63.8362 77.4042 62.6002 77.6172 61.4332 C 77.7672 60.6172 77.8832 60.0862 78.9112 60.2062 C 79.9902 60.3322 80.4872 61.0882 80.4092 61.9042 C 79.9542 66.6342 76.5042 71.2792 70.6712 69.6662 C 69.3372 69.2982 68.1032 68.5622 66.7382 67.9572 Z " stroke-width="1" fill="#2a3d98" stroke="none"/><path d="M 70.6832 56.4042 C 71.3072 55.8402 72.5372 56.2432 72.9242 57.0742 C 73.4472 58.1982 72.7322 59.7312 71.3872 59.4642 C 70.4082 59.2692 70.2052 57.9122 70.3382 57.0922 C 70.3872 56.7832 70.5122 56.5572 70.6832 56.4042 Z " stroke-width="1" fill="#2a3d98" stroke="none"/><path d="M 58.6352 57.6762 C 58.7702 56.9202 59.0552 56.1682 60.0562 56.1402 C 60.8152 56.1192 61.8572 57.4452 61.6462 58.3562 C 61.5462 58.7882 60.8692 59.3112 60.3952 59.3802 C 59.5272 59.5052 58.6182 58.5372 58.6352 57.6762 Z " stroke-width="1" fill="#2a3d98" stroke="none"/></g></g></g></svg>