<svg xmlns="http://www.w3.org/2000/svg" xmlns:xlink="http://www.w3.org/1999/xlink" version="1.1" width="103.55211" height="106.12932" viewBox="0,0,103.55211,106.12932"><g><g data-paper-data="{&quot;isPaintingLayer&quot;:true}" stroke-linecap="butt" stroke-linejoin="miter" stroke-miterlimit="10" stroke-dasharray="" stroke-dashoffset="0" style="mix-blend-mode: normal"><g><path d="M 60.1542 60.2037 L 50.0512 59.6037 L 33.9622 53.7287 L 25.2462 44.8037 L 20.9992 29.7097 L 27.1262 15.1787 L 37.0012 6.4037 L 47.3612 2.7037 L 58.6352 1.1037 L 59.0147 1.133 C 59.9021 1.4585 60.9954 1.525 62.168 1.3763 L 70.3012 2.0037 L 82.5262 5.2037 L 94.7782 11.1037 L 100.5562 19.1037 L 101.5532 23.7037 L 102.5492 32.0817 L 100.9552 40.4037 L 96.7712 48.5037 L 91.2922 53.7037 L 82.2272 58.8037 L 68.9782 61.4037 Z " fill="#ffffff" fill-rule="evenodd" stroke-width="1" stroke="none"/><path d="" fill="#ef463c" fill-rule="evenodd" stroke-width="1" stroke="none" transform="matrix(1,0,0,1,-188.22394,-126.93534)"/><path d="M 95.0032 22.1537 L 97.5432 33.5537 L 97.5432 41.7287 L 92.6872 42.6287 L 88.5032 39.7037 L 87.6062 45.3287 C 87.6062 45.3287 83.4972 53.0537 83.3472 53.2787 C 83.1982 53.5037 76.2502 57.8537 76.2502 57.8537 L 74.5312 60.1037 L 77.6692 59.8787 L 76.4742 65.2037 L 75.9512 70.2287 L 78.1182 75.4037 L 79.9852 81.6287 L 81.6292 88.5287 L 82.8242 93.1787 L 82.1522 96.7787 L 78.6412 98.0537 L 75.8012 97.9787 L 72.7382 100.6037 L 66.0142 101.7287 L 61.6732 100.3037 L 58.6352 95.5787 L 56.0032 81.9287 L 51.2212 83.5037 L 41.7332 85.1537 L 37.5492 85.2287 L 38.3702 87.2537 L 39.3422 95.4287 L 38.9682 99.2537 L 35.1582 101.8037 L 31.5722 102.0287 L 25.5202 104.7287 L 18.7962 103.9787 C 18.7962 103.9787 16.4052 101.6537 16.2552 101.4287 C 16.1062 101.2037 13.7152 93.7787 13.7152 93.7787 L 12.4452 85.8287 L 13.3422 67.4537 L 10.4282 65.8037 L 5.4222 60.7037 L 1.6122 53.9537 L 0.8652 48.8537 L 1.5372 46.5287 L 4.0772 45.6287 L 6.6182 47.2037 L 10.6522 53.4287 L 14.2382 59.2787 L 17.3012 61.4037 L 23.7272 59.3537 L 31.7212 62.6537 L 41.2842 62.6537 L 51.7762 61.7537 L 53.7612 59.2037 L 48.0832 55.8287 L 42.7782 48.8537 L 41.3592 44.1287 L 40.0892 40.9037 L 37.6232 43.6787 C 37.6232 43.6787 34.5602 46.2287 34.3362 46.1537 C 34.1122 46.0787 31.9452 44.0537 31.9452 44.0537 L 29.1062 37.8797 L 28.7332 32.5037 L 28.7332 23.2037 L 48.5312 23.2037 L 52.7392 21.6287 L 67.6582 20.3537 L 78.2672 22.3037 C 78.2672 22.3037 92.1642 19.2287 92.6872 19.1537 Z " fill="#fcb322" fill-rule="evenodd" stroke-width="1" stroke="none"/><path d="M 43.9742 49.7537 C 43.9742 49.7537 45.2442 52.8287 45.3932 53.0537 C 45.5432 53.2787 49.2042 56.1287 49.2042 56.1287 L 53.9112 59.9537 L 46.7382 62.7287 L 44.4972 69.8537 L 44.5722 75.0287 L 45.9162 79.2287 L 48.6812 84.0287 L 40.7612 85.3787 L 35.6062 84.4037 L 34.1872 82.6037 L 32.5432 76.3787 L 32.5432 70.2287 L 33.5142 64.6037 L 33.5892 62.8787 L 24.9222 60.6287 C 24.9222 60.6287 23.6522 58.0037 23.7272 57.7037 C 23.8012 57.4037 23.7272 51.7037 23.7272 51.7037 L 25.0722 48.4037 L 34.8592 49.0037 L 42.0312 49.0037 Z " fill="#71cbd2" fill-rule="evenodd" stroke-width="1" stroke="none"/><path d="M 25.3372 46.7847 C 24.4882 45.5577 23.4802 44.5227 22.9802 43.2827 C 22.1322 41.1777 21.5062 38.9667 20.9602 36.7567 C 19.6412 31.4247 20.5672 26.3437 22.9052 21.4657 C 24.5042 18.1277 26.2072 14.8257 28.7902 12.1417 C 30.4982 10.3687 32.4222 8.7947 34.3212 7.2207 C 38.9312 3.3997 44.4222 1.8267 50.2192 1.0357 C 52.4672 0.7294 54.7088 0.3713 57.0458 0 C 57.6718 0.4875 58.3182 0.8703 58.9777 1.1192 C 60.8884 1.8405 63.7751 1.3417 66.3473 0.0705 C 67.0584 0.1388 67.7683 0.2182 68.4752 0.3187 C 72.3172 0.8647 76.1452 1.4297 79.8662 2.6747 C 84.2442 4.1397 88.4432 5.9817 92.4502 8.2367 C 93.8592 9.0297 95.0162 10.2817 96.2652 11.3497 C 98.6692 13.4077 100.9132 16.8277 101.9562 19.8327 C 102.2062 20.5527 102.3812 21.2757 102.6222 21.9787 C 104.1422 26.4107 103.4822 31.3657 102.8612 35.9717 C 102.4182 39.2637 101.2682 42.2437 99.8662 45.1277 C 98.9852 46.9407 97.6522 48.5917 96.2732 50.0867 C 93.0812 53.5467 89.4922 56.5587 85.1842 58.5497 C 83.1822 59.4757 81.1152 60.3027 79.0052 60.9277 C 78.1152 61.1917 78.2232 61.7377 78.1172 62.2527 C 77.6632 64.4507 77.2662 66.6607 76.8512 68.8677 C 76.8062 69.1057 76.6892 69.3837 76.7642 69.5827 C 77.3142 71.0367 77.9662 72.4507 78.4672 73.9197 C 79.3302 76.4557 80.1982 78.9967 80.8982 81.5797 C 81.9052 85.2957 82.9122 89.0227 83.6082 92.8027 C 83.8752 94.2537 83.4452 95.9047 83.0492 97.3887 C 82.6372 98.9337 80.9872 98.9457 79.7762 99.3267 C 78.9542 99.5847 77.9822 99.3417 77.0802 99.3827 C 76.6942 99.4007 76.1352 99.4417 75.9592 99.6897 C 73.8462 102.6657 70.8212 103.3757 67.4452 103.2357 C 66.4142 103.1937 65.3612 103.1787 64.3632 102.9507 C 61.9342 102.3967 60.0412 101.1307 58.8052 98.8237 C 57.0492 95.5497 56.7212 91.8787 55.6892 88.4067 C 55.2732 87.0027 55.0852 85.5307 54.7442 83.8437 C 53.9522 84.0317 53.1342 84.1857 52.3412 84.4227 C 48.0942 85.6927 43.7912 86.5567 39.1342 86.2287 C 39.1342 87.0067 38.9452 87.7927 39.1672 88.4367 C 40.1522 91.2907 40.4992 94.2377 40.5762 97.2217 C 40.5942 97.9407 40.3972 98.7307 40.0822 99.3807 C 38.3672 102.9177 35.5872 103.9497 32.3732 102.9107 C 32.1342 102.8337 31.7202 103.0007 31.5092 103.1907 C 29.0312 105.4197 26.1762 106.3777 22.8402 106.0747 C 21.3342 105.9387 19.9072 105.7777 18.5272 105.0487 C 15.2272 103.3047 13.9532 100.3437 13.3542 96.8977 C 13.1652 95.8107 12.8892 94.7347 12.5802 93.6747 C 11.5462 90.1297 11.2322 86.4747 10.9442 82.8217 C 10.7782 80.7037 10.6202 78.5577 10.7752 76.4467 C 10.9592 73.9207 11.4162 71.4087 11.8962 68.9167 C 12.0442 68.1477 11.9542 67.6667 11.3212 67.3467 C 7.7042 65.5137 5.5482 62.3097 3.4242 59.0397 C 1.5562 56.1617 0.5402 53.0767 0.0672 49.6567 C -0.1718 47.9347 0.2352 46.7817 1.1492 45.5627 C 2.4442 43.8347 3.9162 43.7037 5.6902 44.9257 C 7.5852 46.2307 8.5912 48.1347 9.5092 50.1127 C 10.6422 52.5537 12.0032 54.9067 13.6672 57.0237 C 14.4862 58.0637 15.3772 59.1247 16.3972 59.9737 C 17.5462 60.9337 18.0232 60.3287 19.2502 59.7127 C 19.9162 59.3777 21.6762 58.9957 22.2502 58.3997 C 22.9092 57.7157 22.2692 56.7967 22.1572 56.0127 C 22.0292 55.1197 22.0742 54.0887 22.1632 53.1897 C 22.3652 51.1447 23.1442 49.2127 24.3912 47.5847 C 24.6102 47.2977 24.9502 47.1057 25.3372 46.7847 Z M 62.6482 21.2257 C 59.9022 21.3517 57.1422 21.9887 54.4772 22.5827 C 52.0402 23.1267 50.1762 24.7407 48.3492 26.3057 C 47.5422 26.9977 46.8742 27.9797 46.4432 28.9627 C 45.0662 32.0987 43.7342 35.2617 42.5912 38.4897 C 42.1652 39.6957 42.0152 41.1607 42.2502 42.4117 C 42.9062 45.8987 44.4292 49.0927 46.3492 52.0497 C 47.1282 53.2507 48.1512 54.4657 49.3542 55.1747 C 51.2022 56.2617 53.2902 56.9467 55.2992 57.7457 C 56.3482 58.1617 57.4232 58.6317 58.5252 58.7727 C 62.5172 59.2837 66.5462 59.4507 70.5122 58.6907 C 74.8612 57.8577 78.7542 55.8777 82.2042 53.1137 C 84.5762 51.2137 85.8652 48.5967 86.6342 45.6687 C 87.6842 41.6767 87.1882 38.3997 85.5892 34.7047 C 84.4882 32.1607 82.5872 29.2747 80.3252 27.6537 C 79.3412 26.9487 78.4742 26.0647 77.4492 25.4287 C 75.7072 24.3477 73.9892 22.9827 72.0692 22.4917 C 69.2082 21.7597 66.5442 21.2037 63.5982 21.2037 C 63.2832 21.2037 62.9652 21.2117 62.6482 21.2257 Z M 76.0882 59.0277 C 76.5402 59.2837 76.6152 59.3637 76.6772 59.3547 C 77.0092 59.3087 77.3442 59.2647 77.6672 59.1777 C 82.6422 57.8347 87.1792 55.6357 90.9822 52.0987 C 92.7312 50.4727 94.5542 48.8587 95.9762 46.9617 C 98.3542 43.7877 99.8952 40.2277 100.6442 36.2227 C 101.5042 31.6267 101.3532 27.1927 99.9342 22.8017 C 99.2922 20.8177 98.5062 18.8397 97.4802 17.0337 C 96.5652 15.4237 95.4822 13.7067 94.0322 12.6427 C 88.5882 8.6527 82.6402 5.6597 76.0202 4.0187 C 70.6092 2.6787 65.1402 1.8367 59.6162 2.2607 C 54.4402 2.6587 49.2512 3.1727 44.2242 4.8157 C 40.5712 6.0097 37.2982 7.7167 34.3332 10.1187 C 29.2062 14.2717 25.5312 19.4727 23.6992 25.8017 C 23.0052 28.1997 22.9172 30.8547 23.0072 33.3767 C 23.0812 35.4637 23.7812 37.5367 24.2862 39.5947 C 24.5682 40.7487 24.7862 42.0167 25.4282 42.9647 C 27.8032 46.4757 30.2232 49.9807 34.0932 52.0887 C 35.7512 52.9917 37.2982 54.1227 39.0102 54.8947 C 41.2922 55.9237 43.6622 56.7777 46.0412 57.5657 C 47.5122 58.0527 49.0692 58.2777 50.8322 58.6737 C 50.5842 58.3407 50.5492 58.2387 50.4862 58.2157 C 46.7952 56.8857 44.3722 54.2467 42.7402 50.7547 C 42.6032 50.4617 42.1222 50.1617 41.7952 50.1557 C 40.1722 50.1247 38.4762 49.9647 36.8702 50.2147 C 35.9432 50.3587 34.6692 50.8197 34.0352 49.7797 C 32.9422 47.9887 35.4132 48.1897 36.3072 48.1797 C 37.9542 48.1617 39.6352 47.9667 41.2812 47.8617 C 40.7802 46.0997 40.3332 44.5297 39.8222 42.7347 C 38.9352 43.6957 38.2862 44.5227 37.5102 45.2047 C 36.6562 45.9547 35.9242 46.9677 34.5412 46.8367 C 32.9222 46.6847 31.5352 46.1637 30.7492 44.6357 C 30.2932 43.7487 29.9152 42.8197 29.5402 41.8947 C 28.4672 39.2517 27.5392 36.5597 27.5382 33.6637 C 27.5382 30.8117 27.5532 27.9557 27.7012 25.1097 C 27.8282 22.6947 28.5452 22.0487 31.0192 21.9597 C 33.3852 21.8747 35.7602 21.8397 38.1252 21.9247 C 41.3962 22.0407 44.6612 22.3017 47.9292 22.4707 C 48.4322 22.4967 49.0452 22.5287 49.4312 22.2817 C 52.3212 20.4337 55.5112 19.4837 58.8632 19.1037 C 62.9192 18.6437 66.9902 18.7537 70.9432 19.8077 C 72.6702 20.2687 74.7012 21.5457 76.4512 21.2487 C 78.5862 20.8847 80.8332 20.5767 82.9252 20.0097 C 84.2732 19.6437 85.6672 19.4747 87.0312 19.1277 C 88.9622 18.6367 91.6202 18.0857 93.6052 18.5037 C 95.0762 18.8137 95.9632 20.8567 96.5562 22.2007 C 97.8802 25.1997 98.3512 28.4607 98.4962 31.7127 C 98.6372 34.8717 98.9472 37.8237 98.5792 40.9717 C 98.3952 42.5367 96.9452 43.7257 95.3822 43.7557 C 93.4252 43.7947 91.5522 43.3507 89.8222 42.1137 C 88.8652 50.6737 83.9482 55.9377 76.0882 59.0277 Z M 54.5012 80.6727 C 54.4222 79.8607 53.2112 75.4087 55.0342 75.7997 C 56.3512 76.0837 56.4442 79.5307 56.5822 80.4387 C 56.7132 81.3087 57.0612 82.1637 57.0842 83.0317 C 57.1942 87.1087 58.2022 91.0077 59.4002 94.8567 C 60.2112 97.4627 61.2332 100.0347 64.3642 100.6537 C 66.2882 101.0347 68.1892 101.1837 70.1722 100.5987 C 73.6932 99.5607 75.2132 97.3617 74.5732 93.7097 C 74.1242 91.1467 73.7092 88.5777 73.1702 86.0337 C 72.8332 84.4407 72.4412 82.8607 72.0642 81.2767 C 71.8422 80.3427 71.3082 78.7647 71.4732 77.8237 C 71.2262 78.3447 70.2532 79.0767 69.6902 78.3937 C 68.3912 76.8177 71.6842 74.8257 72.2512 73.7517 C 73.0652 72.2107 73.8512 70.6077 74.3132 68.9367 C 74.9682 66.5737 75.3212 64.1247 75.7982 61.7337 C 74.1182 62.0007 72.6822 62.2797 71.2332 62.4477 C 69.7582 62.6187 68.2732 62.7267 66.7882 62.7757 C 65.7612 62.8097 64.7212 62.7567 63.6992 62.6377 C 62.1302 62.4527 60.5612 61.9357 59.0092 61.9967 C 56.5412 62.0927 54.0852 62.5387 51.6262 62.8577 C 50.9902 62.9407 50.3562 63.0737 49.7322 63.2277 C 48.8222 63.4507 47.7022 63.4677 47.0812 64.0287 C 46.3722 64.6707 46.0712 66.2647 45.7482 67.1597 C 45.3412 68.2857 45.3252 69.5517 45.2422 70.7457 C 44.9642 74.7457 45.8582 77.7237 48.0912 81.0407 C 48.5042 81.6557 48.9902 82.2227 49.3782 82.7287 C 51.0601 82.2367 52.722 81.7508 54.5878 81.2038 C 54.5812 81.1792 54.5265 80.9276 54.5012 80.6727 Z M 20.0782 61.4047 C 19.7962 61.5717 19.5232 61.7607 19.2192 61.9837 C 17.1732 63.4877 14.8872 66.3827 14.1352 68.8617 C 13.1032 72.2667 12.6792 75.8967 12.8842 79.5037 C 13.0372 82.2027 13.5782 84.8817 13.6732 87.5797 C 13.8222 91.7757 15.2862 95.6327 16.4822 99.5497 C 17.0592 101.4427 18.4142 102.9837 20.4162 103.4877 C 24.2232 104.4477 27.6972 103.9437 30.1162 100.4287 C 30.6032 99.7207 31.0422 98.7477 30.9822 97.9357 C 30.8072 95.5717 30.3622 93.2257 30.0352 90.8727 C 29.7262 88.6457 29.4442 86.4147 29.1062 84.1927 C 29.0742 83.9837 28.7582 83.7387 28.5232 83.6547 C 27.5832 83.3167 26.5952 83.1027 25.6822 82.7067 C 25.2392 82.5147 24.7722 82.0837 24.6042 81.6477 C 24.4922 81.3567 24.8242 80.8167 25.0852 80.4917 C 26.0502 79.2907 30.4732 82.1477 31.6672 82.5247 C 34.1872 83.3217 33.3222 81.7767 32.7032 80.1267 C 31.9072 78.0037 31.5782 75.3407 31.6742 73.0857 C 31.7892 70.3677 31.1982 67.5507 32.3642 64.9087 C 32.4772 64.6507 32.5182 64.3007 32.4422 64.0377 C 32.3702 63.7887 32.1262 63.4417 31.9122 63.4047 C 29.2912 62.9587 26.7232 62.6017 24.4132 61.1047 C 22.8402 60.0847 21.7532 60.4177 20.0782 61.4047 Z M 29.3782 32.0687 C 29.4312 36.1207 30.8182 39.7557 32.6322 43.2557 C 33.2162 44.3847 34.1212 44.6127 35.1412 43.8947 C 39.5902 40.7677 40.8022 36.0147 42.5272 31.0857 C 43.0762 29.5177 43.5332 27.9027 44.2642 26.4067 C 44.7692 25.3737 45.6152 24.1747 43.9322 23.9287 C 39.9382 23.3447 35.9502 23.6157 31.9632 23.9457 C 30.7492 24.0457 29.8912 24.6357 29.7902 25.9617 C 29.6362 27.9967 29.5142 30.0327 29.3782 32.0687 Z M 80.3082 23.8957 C 81.1402 24.6487 81.8182 25.3917 82.6182 25.9627 C 85.7372 28.1917 87.2422 31.4787 88.2452 34.9657 C 88.9242 37.3297 89.5622 39.4927 91.8772 40.8167 C 93.7632 41.8947 95.9582 41.3667 96.2792 39.3577 C 96.7252 36.5757 96.6422 33.7377 95.9912 30.9977 C 95.5852 29.2927 95.6022 27.4837 95.0522 25.7677 C 94.6122 24.3907 94.0052 22.2507 92.7062 21.3987 C 90.8592 20.1877 87.3742 21.6057 85.4282 21.9037 C 83.6272 22.1817 81.9202 22.6437 80.3082 23.8957 Z M 50.0302 60.9127 C 47.1542 59.9737 44.3242 59.1237 41.5472 58.1237 C 37.9062 56.8127 34.3942 55.1967 31.2482 52.9047 C 29.8282 51.8697 28.5112 50.6937 27.1662 49.5587 C 26.8592 49.2997 26.6322 48.9447 26.3692 48.6327 C 26.0492 49.0057 25.6492 49.3357 25.4242 49.7607 C 24.3872 51.7197 24.3902 53.8317 24.4212 55.9987 C 24.4512 58.0717 25.5532 59.5267 27.1312 60.1917 C 29.0432 60.9987 31.2242 61.3867 33.3122 61.4947 C 36.7212 61.6687 40.1502 61.5207 43.5692 61.4077 C 45.7302 61.3377 47.8852 61.0827 50.0302 60.9127 Z M 15.8372 62.2507 C 15.5682 62.0147 15.2442 61.8037 15.0142 61.5157 C 13.5802 59.7217 12.0852 57.9697 10.7752 56.0877 C 9.8272 54.7247 9.0092 53.2377 8.3632 51.7077 C 7.6272 49.9637 6.7652 48.3367 5.4112 47.0207 C 4.4952 46.1297 3.2712 46.3397 2.7822 47.5147 C 2.4532 48.3037 2.1722 49.2327 2.2602 50.0577 C 2.7172 54.3987 4.7462 58.1167 7.4102 61.4197 C 8.8762 63.2367 10.8642 64.6317 12.6512 66.2477 C 13.7752 64.8387 14.7772 63.5797 15.8372 62.2507 Z M 75.5972 73.0197 C 75.4862 73.0197 75.3752 73.0197 75.2642 73.0187 C 74.8302 74.1187 74.2502 75.1887 74.0112 76.3317 C 73.8472 77.1167 74.1332 78.0057 74.2592 78.8417 C 74.6052 81.1467 74.9382 83.4537 75.3442 85.7477 C 75.7232 87.8927 76.2722 90.0097 76.5872 92.1627 C 76.7862 93.5217 76.6632 94.9257 76.7582 96.3027 C 76.7762 96.5557 77.1162 96.9287 77.3732 96.9997 C 79.0582 97.4617 80.8842 96.5167 81.1102 94.7967 C 81.3162 93.2167 81.3102 91.5077 80.9282 89.9727 C 79.9992 86.2457 78.8342 82.5757 77.6902 78.9067 C 77.0722 76.9197 76.3002 74.9807 75.5972 73.0197 Z M 31.6192 84.8647 C 31.9572 87.6817 32.3492 90.2827 32.5612 92.8997 C 32.7552 95.2927 32.7252 97.7047 32.8752 100.1037 C 32.8962 100.4547 33.3852 101.0747 33.6212 101.0577 C 34.3782 101.0027 35.2592 100.8987 35.8382 100.4697 C 37.4922 99.2407 38.2312 97.4367 38.1002 95.4087 C 37.8182 91.0527 38.0092 86.6537 32.9812 85.1357 C 32.5782 85.0137 32.1522 84.9667 31.6192 84.8647 Z M 33.5762 72.9787 C 36.9442 72.4827 40.0202 72.0287 43.3782 71.5347 C 43.3782 70.5997 43.3672 69.6117 43.3822 68.6217 C 43.3942 67.8447 43.0992 67.6047 42.2942 67.7327 C 40.9412 67.9477 39.5682 68.0407 38.2002 68.1617 C 36.6902 68.2957 35.1782 68.4047 33.5762 68.5317 C 33.5762 69.9667 33.5762 71.4067 33.5762 72.9787 Z M 34.1692 74.9337 C 34.0072 75.0447 33.8852 75.1877 33.8212 75.3727 C 33.5942 76.0297 33.8612 78.6907 34.5082 79.1147 C 35.2652 79.6077 37.3442 78.7677 38.1072 78.5317 C 39.8352 77.9967 41.6162 77.7867 43.3722 77.3437 C 44.2482 77.1227 44.3012 77.2637 44.2102 76.2577 C 44.1382 75.4547 43.6772 74.7297 43.6652 73.9167 C 43.6662 73.9837 37.5232 74.4407 37.0732 74.4837 C 36.2292 74.5657 34.8462 74.4697 34.1692 74.9337 Z M 44.8362 79.7277 C 44.7422 79.6387 44.6482 79.5687 44.5542 79.5237 C 43.7182 79.1237 41.7252 79.9927 40.7992 80.1757 C 39.5662 80.4207 38.3522 80.7457 37.1322 81.0487 C 36.2542 81.2657 35.3262 81.1857 35.6682 82.2477 C 36.0532 83.4477 38.2142 84.1047 39.3122 84.1037 C 41.3262 84.1017 43.4202 84.3387 45.4062 83.8937 C 46.6032 83.6257 46.7252 83.4077 46.2972 82.2957 C 45.9652 81.4347 45.5162 80.3727 44.8362 79.7277 Z M 45.0512 63.6427 C 42.4622 63.2847 39.5842 63.5807 36.9642 63.6097 C 36.3142 63.6177 35.3142 63.7227 34.8062 64.2027 C 34.2872 64.6947 34.2192 65.5497 33.9562 66.1827 C 36.1382 66.2187 38.1762 66.1857 40.3832 65.9987 C 41.3432 65.9177 42.3762 66.0567 43.3092 65.7627 C 43.7132 65.6357 44.2052 65.4427 44.5082 65.1297 C 44.6192 65.0157 45.3432 63.6777 45.0952 63.6477 C 45.0802 63.6467 45.0652 63.6447 45.0512 63.6427 Z " fill="#2a3d98" fill-rule="nonzero" stroke-width="1" stroke="none"/><path d="M 12.6684 66.2947 C 10.8814 64.6787 8.8609 63.2843 7.3949 61.4673 C 4.7309 58.1643 2.6806 54.3647 2.2236 50.0237 C 2.1356 49.1987 2.4244 48.2629 2.7534 47.4739 C 3.2424 46.2989 4.4771 46.0831 5.3931 46.9741 C 6.7471 48.2901 7.62 49.9142 8.356 51.6582 C 9.002 53.1882 9.8766 54.717 10.8246 56.08 C 12.1346 57.962 13.6181 59.7544 15.0521 61.5484 C 15.2821 61.8364 15.606 62.0475 15.875 62.2835 C 14.815 63.6125 13.7924 64.8857 12.6684 66.2947 Z " data-paper-data="{&quot;noHover&quot;:false,&quot;origItem&quot;:[&quot;Path&quot;,{&quot;applyMatrix&quot;:true,&quot;segments&quot;:[[[408.186,407.294],[-2.12,2.658],[-0.538,-0.472]],[[406.54,405.824],[0.46,0.576],[-2.868,-3.588]],[[398.062,394.968],[2.62,3.764],[-1.896,-2.726]],[[393.238,386.208],[1.292,3.06],[-1.472,-3.488]],[[387.334,376.834],[2.708,2.632],[-1.832,-1.782]],[[382.076,377.822],[0.978,-2.35],[-0.658,1.578]],[[381.032,382.908],[-0.176,-1.65],[0.914,8.682]],[[391.332,405.632],[-5.328,-6.606],[2.932,3.634]],[[401.814,415.288],[-3.574,-3.232],[2.248,-2.818]]],&quot;closed&quot;:true,&quot;fillColor&quot;:[0,0,0,1],&quot;fillRule&quot;:&quot;evenodd&quot;}]}" fill="#ff6666" fill-rule="evenodd" stroke-width="0.5" stroke="none"/><path d="M 32.9695 85.0871 C 37.9975 86.6051 37.8581 91.0829 38.1401 95.4389 C 38.2711 97.4669 37.4986 99.2903 35.8447 100.5193 C 35.2656 100.9483 34.3706 101.0521 33.6136 101.1071 C 33.3776 101.1241 32.8828 100.5029 32.8618 100.1519 C 32.7118 97.7529 32.7052 95.2914 32.5112 92.8984 C 32.2993 90.2814 31.9386 87.6353 31.6006 84.8183 C 32.1336 84.9203 32.5665 84.9651 32.9695 85.0871 Z " data-paper-data="{&quot;noHover&quot;:false,&quot;origItem&quot;:[&quot;Path&quot;,{&quot;applyMatrix&quot;:true,&quot;segments&quot;:[[[439.75,452.522],[1.066,0.204],[0.676,5.634]],[[441.634,468.592],[-0.424,-5.234],[0.388,4.786]],[[442.262,483],[-0.3,-4.798],[0.042,0.702]],[[443.754,484.908],[-0.472,0.034],[1.514,-0.11]],[[448.188,483.732],[-1.158,0.858],[3.308,-2.458]],[[452.712,473.61],[0.262,4.056],[-0.564,-8.712]],[[442.474,453.064],[10.056,3.036],[-0.806,-0.244]]],&quot;closed&quot;:true,&quot;fillColor&quot;:[0,0,0,1],&quot;fillRule&quot;:&quot;evenodd&quot;}]}" fill="#ff6666" fill-rule="evenodd" stroke-width="0.5" stroke="none"/><path d="M 24.4163 61.0548 C 26.7263 62.5518 29.3125 62.9135 31.9335 63.3595 C 32.1475 63.3965 32.3931 63.7443 32.4651 63.9933 C 32.5411 64.2563 32.5008 64.6067 32.3878 64.8647 C 31.2218 67.5067 31.8235 70.3313 31.7085 73.0493 C 31.6125 75.3043 31.9561 77.9932 32.7521 80.1162 C 33.3711 81.7662 34.1373 83.3198 31.6173 82.5228 C 30.4233 82.1458 26.0123 79.3233 25.0473 80.5243 C 24.7863 80.8493 24.5392 81.3395 24.6512 81.6305 C 24.8192 82.0665 25.2883 82.5244 25.7313 82.7164 C 26.6443 83.1123 27.6315 83.3297 28.5715 83.6677 C 28.8065 83.7517 29.1217 83.9995 29.1537 84.2085 C 29.4917 86.4305 29.7574 88.6848 30.0664 90.9118 C 30.3934 93.2648 30.8296 95.6164 31.0046 97.9804 C 31.0646 98.7924 30.6212 99.7674 30.1342 100.4754 C 27.7152 103.9904 24.217 104.4973 20.41 103.5373 C 18.408 103.0333 17.0414 101.4895 16.4644 99.5965 C 15.2684 95.6795 13.7788 91.8005 13.6298 87.6045 C 13.5348 84.9065 12.9889 82.19 12.8359 79.491 C 12.6309 75.884 13.0753 72.2252 14.1073 68.8202 C 14.8593 66.3412 17.1638 63.4386 19.2098 61.9346 C 19.5138 61.7116 19.7891 61.5222 20.0711 61.3553 C 21.7461 60.3683 22.8434 60.0348 24.4164 61.0548 Z " data-paper-data="{&quot;noHover&quot;:false,&quot;origItem&quot;:[&quot;Path&quot;,{&quot;applyMatrix&quot;:true,&quot;segments&quot;:[[[416.668,405.602],[3.35,-1.974],[-0.564,0.334]],[[414.95,406.76],[0.608,-0.446],[-4.092,3.008]],[[404.782,420.516],[1.504,-4.958],[-2.064,6.81]],[[402.28,441.8],[-0.41,-7.214],[0.306,5.398]],[[403.858,457.952],[-0.19,-5.396],[0.298,8.392]],[[409.476,481.892],[-2.392,-7.834],[1.154,3.786]],[[417.344,489.768],[-4.004,-1.008],[7.614,1.92]],[[436.744,483.65],[-4.838,7.03],[0.974,-1.416]],[[438.476,478.664],[0.12,1.624],[-0.35,-4.728]],[[436.582,464.538],[0.654,4.706],[-0.618,-4.454]],[[434.724,451.178],[0.676,4.444],[-0.064,-0.418]],[[433.558,450.102],[0.47,0.168],[-1.88,-0.676]],[[427.876,448.206],[1.826,0.792],[-0.886,-0.384]],[[425.72,446.088],[0.336,0.872],[-0.224,-0.582]],[[426.682,443.776],[-0.522,0.65],[1.93,-2.402]],[[439.846,447.842],[-2.388,-0.754],[5.04,1.594]],[[441.918,443.046],[1.238,3.3],[-1.592,-4.246]],[[439.86,428.964],[-0.192,4.51],[0.23,-5.436]],[[441.24,412.61],[-2.332,5.284],[0.226,-0.516]],[[441.396,410.868],[0.152,0.526],[-0.144,-0.498]],[[440.336,409.602],[0.428,0.074],[-5.242,-0.892]],[[425.338,405.002],[4.62,2.994],[-3.146,-2.04]]],&quot;closed&quot;:true,&quot;fillColor&quot;:[0,0,0,1],&quot;fillRule&quot;:&quot;evenodd&quot;}]}" fill="#ff6666" fill-rule="evenodd" stroke-width="0.5" stroke="none"/><path d="M 77.6909 78.8567 C 78.8349 82.5257 80.0273 86.2871 80.9563 90.0141 C 81.3383 91.5491 81.3332 93.2637 81.1272 94.8437 C 80.9012 96.5637 79.0573 97.5117 77.3723 97.0497 C 77.1153 96.9787 76.7725 96.6056 76.7545 96.3526 C 76.6595 94.9756 76.7791 93.5712 76.5801 92.2122 C 76.2651 90.0592 75.6753 87.9071 75.2963 85.7621 C 74.8903 83.4681 74.5816 81.1027 74.2356 78.7977 C 74.1096 77.9617 73.8282 77.0705 73.9922 76.2855 C 74.2312 75.1425 74.8207 74.0696 75.2547 72.9696 C 75.3657 72.9706 75.478 72.9704 75.589 72.9704 C 76.292 74.9314 77.0729 76.8697 77.6909 78.8567 Z " data-paper-data="{&quot;noHover&quot;:false,&quot;origItem&quot;:[&quot;Path&quot;,{&quot;applyMatrix&quot;:true,&quot;segments&quot;:[[[527.706,428.832],[1.406,3.922],[-0.222,0]],[[527.04,428.83],[0.222,0.002],[-0.868,2.2]],[[524.534,435.456],[0.478,-2.286],[-0.328,1.57]],[[525.03,440.476],[-0.252,-1.672],[0.692,4.61]],[[527.2,454.288],[-0.812,-4.588],[0.758,4.29]],[[529.686,467.118],[-0.63,-4.306],[0.398,2.718]],[[530.028,475.398],[-0.19,-2.754],[0.036,0.506]],[[531.258,476.792],[-0.514,-0.142],[3.37,0.924]],[[538.732,472.386],[-0.452,3.44],[0.412,-3.16]],[[538.368,462.738],[0.764,3.07],[-1.858,-7.454]],[[531.892,440.606],[2.288,7.338],[-1.236,-3.974]]],&quot;closed&quot;:true,&quot;fillColor&quot;:[0,0,0,1],&quot;fillRule&quot;:&quot;evenodd&quot;}]}" fill="#ff6666" fill-rule="evenodd" stroke-width="0.5" stroke="none"/><path d="M 49.3286 82.7348 C 48.9406 82.2288 48.4542 81.6544 48.0412 81.0394 C 45.8082 77.7224 44.9232 74.7172 45.2012 70.7172 C 45.2842 69.5232 45.3052 68.251 45.7122 67.125 C 46.0352 66.23 46.3416 64.6312 47.0506 63.9892 C 47.6716 63.4282 48.7967 63.4077 49.7067 63.1847 C 50.3307 63.0307 50.9686 62.8956 51.6046 62.8126 C 54.0636 62.4936 56.5374 62.0429 59.0054 61.9469 C 60.5574 61.8859 62.1387 62.4034 63.7077 62.5884 C 64.7296 62.7074 65.7773 62.7623 66.8042 62.7283 C 68.2893 62.6793 69.7829 62.5752 71.2579 62.4042 C 72.7069 62.2362 74.149 61.9613 75.829 61.6943 C 75.352 64.0853 75.0054 66.5403 74.3504 68.9033 C 73.8884 70.5743 73.1072 72.1835 72.2932 73.7245 C 71.7262 74.7985 68.4388 76.8023 69.7378 78.3783 C 70.3008 79.0613 71.2738 78.3294 71.5208 77.8084 C 71.3558 78.7494 71.8922 80.3423 72.1142 81.2763 C 72.4912 82.8603 72.8801 84.458 73.2171 86.051 C 73.7561 88.595 74.1618 91.1797 74.6108 93.7427 C 75.2508 97.3947 73.7157 99.6054 70.1947 100.6434 C 68.2117 101.2284 66.298 101.0837 64.374 100.7027 C 61.243 100.0837 60.2072 97.5125 59.3962 94.9065 C 58.1982 91.0575 57.1493 87.1307 57.0393 83.0537 C 57.0163 82.1857 56.6645 81.2972 56.5335 80.4272 C 56.3955 79.5192 56.3862 76.1194 55.0692 75.8354 C 53.2462 75.4444 54.4719 79.8664 54.5509 80.6784 C 54.5789 80.9604 54.6432 81.234 54.6382 81.205 C 52.7722 81.752 51.0106 82.2428 49.3286 82.7348 Z " data-paper-data="{&quot;noHover&quot;:false,&quot;origItem&quot;:[&quot;Path&quot;,{&quot;applyMatrix&quot;:true,&quot;segments&quot;:[[[485.688,445.2],[-3.732,1.094],[0.01,0.058]],[[485.514,444.138],[0.056,0.564],[-0.158,-1.624]],[[486.58,434.392],[-3.646,-0.782],[2.634,0.568]],[[489.676,443.67],[-0.276,-1.816],[0.262,1.74]],[[490.68,448.856],[-0.046,-1.736],[0.22,8.154]],[[495.312,472.506],[-2.396,-7.698],[1.622,5.212]],[[505.24,484.1],[-6.262,-1.238],[3.848,0.762]],[[516.856,483.99],[-3.966,1.17],[7.042,-2.076]],[[525.658,470.212],[1.28,7.304],[-0.898,-5.126]],[[522.852,454.86],[1.078,5.088],[-0.674,-3.186]],[[520.64,445.346],[0.754,3.168],[-0.444,-1.868]],[[519.458,438.44],[-0.33,1.882],[-0.494,1.042]],[[515.892,439.58],[1.126,1.366],[-2.598,-3.152]],[[521.014,430.296],[-1.134,2.148],[1.628,-3.082]],[[525.138,420.666],[-0.924,3.342],[1.31,-4.726]],[[528.108,406.26],[-0.954,4.782],[-3.36,0.534]],[[518.978,407.688],[2.898,-0.336],[-2.95,0.342]],[[510.088,408.344],[2.97,-0.098],[-2.054,0.068]],[[503.91,408.068],[2.044,0.238],[-3.138,-0.37]],[[494.53,406.786],[3.104,-0.122],[-4.936,0.192]],[[479.764,408.508],[4.918,-0.638],[-1.272,0.166]],[[475.976,409.248],[1.248,-0.308],[-1.82,0.446]],[[470.674,410.85],[1.242,-1.122],[-1.418,1.284]],[[468.008,417.112],[0.646,-1.79],[-0.814,2.252]],[[466.996,424.284],[0.166,-2.388],[-0.556,8]],[[472.694,444.874],[-4.466,-6.634],[0.826,1.23]],[[475.268,448.25],[-0.776,-1.012],[3.364,-0.984]]],&quot;closed&quot;:true,&quot;fillColor&quot;:[0,0,0,1],&quot;fillRule&quot;:&quot;evenodd&quot;}]}" fill="#ff6666" fill-rule="evenodd" stroke-width="0.5" stroke="none"/><path d="M 85.4128 21.8562 C 87.3588 21.5582 90.8793 20.1419 92.7263 21.3529 C 94.0253 22.2049 94.6511 24.3592 95.0911 25.7362 C 95.6411 27.4522 95.6352 29.2918 96.0412 30.9968 C 96.6922 33.7368 96.7598 36.6119 96.3138 39.3939 C 95.9928 41.4029 93.78 41.9418 91.894 40.8638 C 89.579 39.5398 88.9218 37.3797 88.2428 35.0157 C 87.2398 31.5287 85.6999 28.1585 82.5809 25.9295 C 81.7809 25.3585 81.1029 24.6154 80.2709 23.8624 C 81.8829 22.6104 83.6118 22.1342 85.4128 21.8562 Z " data-paper-data="{&quot;noHover&quot;:false,&quot;origItem&quot;:[&quot;Path&quot;,{&quot;applyMatrix&quot;:true,&quot;segments&quot;:[[[537.128,330.584],[3.224,-2.504],[1.664,1.506]],[[541.748,334.718],[-1.6,-1.142],[6.238,4.458]],[[553.002,352.724],[-2.006,-6.974],[1.358,4.728]],[[560.266,364.426],[-4.63,-2.648],[3.772,2.156]],[[569.07,361.508],[-0.642,4.018],[0.892,-5.564]],[[568.494,344.788],[1.302,5.48],[-0.812,-3.41]],[[566.616,334.328],[1.1,3.432],[-0.88,-2.754]],[[561.924,325.59],[2.598,1.704],[-3.694,-2.422]],[[547.368,326.6],[3.892,-0.596],[-3.602,0.556]]],&quot;closed&quot;:true,&quot;fillColor&quot;:[0,0,0,1],&quot;fillRule&quot;:&quot;evenodd&quot;}]}" fill="#ff6666" fill-rule="evenodd" stroke-width="0.5" stroke="none"/><path d="M 63.5954 21.1538 C 66.5414 21.1538 69.2275 21.7136 72.0885 22.4456 C 74.0085 22.9366 75.7399 24.3099 77.4819 25.3909 C 78.5069 26.0269 79.3802 26.9175 80.3642 27.6224 C 82.6262 29.2434 84.5366 32.148 85.6376 34.692 C 87.2366 38.387 87.7328 41.6888 86.6828 45.6808 C 85.9138 48.6088 84.6165 51.2434 82.2445 53.1434 C 78.7945 55.9074 74.8763 57.9054 70.5273 58.7384 C 66.5613 59.4984 62.5015 59.3312 58.5095 58.8202 C 57.4075 58.6792 56.3247 58.2058 55.2757 57.7898 C 53.2667 56.9908 51.1665 56.2967 49.3185 55.2097 C 48.1155 54.5007 47.0863 53.2779 46.3073 52.0769 C 44.3873 49.1199 42.8565 45.9036 42.2005 42.4166 C 41.9655 41.1656 42.1154 39.6919 42.5414 38.4859 C 43.6844 35.2579 45.0237 32.0725 46.4007 28.9365 C 46.8317 27.9535 47.5042 26.9653 48.3112 26.2733 C 50.1382 24.7083 52.0152 23.0834 54.4522 22.5394 C 57.1172 21.9454 59.897 21.302 62.643 21.176 C 62.96 21.162 63.2804 21.1538 63.5954 21.1538 Z " data-paper-data="{&quot;noHover&quot;:false,&quot;origItem&quot;:[&quot;Path&quot;,{&quot;applyMatrix&quot;:true,&quot;segments&quot;:[[[501.808,325.244],[0.634,-0.028],[-5.492,0.252]],[[485.466,327.958],[5.33,-1.188],[-4.874,1.088]],[[473.21,335.404],[3.654,-3.13],[-1.614,1.384]],[[469.398,340.718],[0.862,-1.966],[-2.754,6.272]],[[461.694,359.772],[2.286,-6.456],[-0.852,2.412]],[[461.012,367.616],[-0.47,-2.502],[1.312,6.974]],[[469.21,386.892],[-3.84,-5.914],[1.558,2.402]],[[475.22,393.142],[-2.406,-1.418],[3.696,2.174]],[[487.11,398.284],[-4.018,-1.598],[2.098,0.832]],[[493.562,400.338],[-2.204,-0.282],[7.984,1.022]],[[517.536,400.174],[-7.932,1.52],[8.698,-1.666]],[[540.92,389.02],[-6.9,5.528],[4.744,-3.8]],[[549.78,374.13],[-1.538,5.856],[2.1,-7.984]],[[547.69,352.202],[3.198,7.39],[-2.202,-5.088]],[[537.162,338.1],[4.524,3.242],[-1.968,-1.41]],[[531.41,333.65],[2.05,1.272],[-3.484,-2.162]],[[520.65,327.776],[3.84,0.982],[-5.722,-1.464]],[[503.708,325.2],[5.892,0],[-0.63,0]]],&quot;closed&quot;:true,&quot;fillColor&quot;:[0,0,0,1],&quot;fillRule&quot;:&quot;evenodd&quot;}]}" fill="#ff6666" fill-rule="evenodd" stroke-width="0.5" stroke="none"/><path d="M 29.7563 25.925 C 29.8573 24.599 30.7262 24.0013 31.9402 23.9013 C 35.9272 23.5713 39.9663 23.3033 43.9603 23.8873 C 45.6432 24.1333 44.8035 25.3374 44.2985 26.3704 C 43.5675 27.8664 43.1204 29.4942 42.5714 31.0622 C 40.8464 35.9912 39.5803 40.8167 35.1313 43.9437 C 34.1113 44.6617 33.1944 44.4297 32.6104 43.3007 C 30.7964 39.8007 29.3826 36.109 29.3296 32.057 C 29.4656 30.021 29.6023 27.96 29.7563 25.925 Z " data-paper-data="{&quot;noHover&quot;:false,&quot;origItem&quot;:[&quot;Path&quot;,{&quot;applyMatrix&quot;:true,&quot;segments&quot;:[[[435.268,346.93],[0.272,-4.072],[0.106,8.104]],[[441.776,369.304],[-3.628,-7],[1.168,2.258]],[[446.794,370.582],[-2.04,1.436],[8.898,-6.254]],[[461.566,344.964],[-3.45,9.858],[1.098,-3.136]],[[465.04,335.606],[-1.462,2.992],[1.01,-2.066]],[[464.376,330.65],[3.366,0.492],[-7.988,-1.168]],[[440.438,330.684],[7.974,-0.66],[-2.428,0.2]],[[436.092,334.716],[0.202,-2.652],[-0.308,4.07]]],&quot;closed&quot;:true,&quot;fillColor&quot;:[0,0,0,1],&quot;fillRule&quot;:&quot;evenodd&quot;}]}" fill="#ff6666" fill-rule="evenodd" stroke-width="0.5" stroke="none"/></g><g fill-rule="evenodd"><path d="M 66.7382 39.8487 C 65.2782 42.2187 63.0102 43.5287 60.2572 43.6707 C 57.8092 43.7967 55.9172 42.4447 54.5142 40.4667 C 53.9792 39.7107 52.3142 37.7587 52.8412 36.9057 C 54.2022 34.7037 56.3232 39.3787 56.8232 39.9357 C 58.2732 41.5507 60.3572 41.5237 62.0882 40.3587 C 63.5302 39.3897 64.6032 38.1597 64.9442 36.2467 C 64.4912 36.2187 64.0572 36.2107 63.6262 36.1617 C 62.8062 36.0657 62.2182 35.5477 62.3452 34.7717 C 62.4172 34.3347 63.0572 33.7707 63.5292 33.6637 C 64.8412 33.3717 66.1972 33.2247 67.5422 33.1647 C 67.9172 33.1477 68.5662 33.5737 68.6422 33.9007 C 68.7562 34.3887 68.6492 35.1557 68.3192 35.4687 C 67.6642 36.0897 67.7832 36.5647 68.1712 37.2047 C 70.1092 40.3957 74.7902 40.1957 76.6402 36.7517 C 77.1912 35.7277 77.4042 34.4917 77.6172 33.3247 C 77.7672 32.5087 77.8832 31.9777 78.9112 32.0977 C 79.9902 32.2237 80.4872 32.9797 80.4092 33.7957 C 79.9542 38.5257 76.5042 43.1707 70.6712 41.5577 C 69.3372 41.1897 68.1032 40.4537 66.7382 39.8487 Z " stroke-width="1" fill="#2a3d98" stroke="none"/><path d="M 70.6832 28.2957 C 71.3072 27.7317 72.5372 28.1347 72.9242 28.9657 C 73.4472 30.0897 72.7322 31.6227 71.3872 31.3557 C 70.4082 31.1607 70.2052 29.8037 70.3382 28.9837 C 70.3872 28.6747 70.5122 28.4487 70.6832 28.2957 Z " stroke-width="1" fill="#2a3d98" stroke="none"/><path d="M 58.6352 29.5677 C 58.7702 28.8117 59.0552 28.0597 60.0562 28.0317 C 60.8152 28.0107 61.8572 29.3367 61.6462 30.2477 C 61.5462 30.6797 60.8692 31.2027 60.3952 31.2717 C 59.5272 31.3967 58.6182 30.4287 58.6352 29.5677 Z " stroke-width="1" fill="#2a3d98" stroke="none"/></g></g></g></svg>